solid OpenSCAD_Model
  facet normal -1 0 0
    outer loop
      vertex -28.6819 -10.7378 -2.7625
      vertex -28.6819 -9.87 2.7625
      vertex -28.6819 -9.87 -2.7625
    endloop
  endfacet
  facet normal -1 -0 0
    outer loop
      vertex -28.6819 -9.87 2.7625
      vertex -28.6819 -10.7378 -2.7625
      vertex -28.6819 -10.7378 2.7625
    endloop
  endfacet
  facet normal 0 0 1
    outer loop
      vertex 26.88 11.87 2.7625
      vertex -26.88 11.87 2.7625
      vertex 26.88 11.7183 2.7625
    endloop
  endfacet
  facet normal 0 0 1
    outer loop
      vertex 26.88 11.7183 2.7625
      vertex 27.1 9.895 2.7625
      vertex 28.127 11.4337 2.7625
    endloop
  endfacet
  facet normal 0 0 1
    outer loop
      vertex -26.88 11.7183 2.7625
      vertex 26.88 11.7183 2.7625
      vertex -26.88 11.87 2.7625
    endloop
  endfacet
  facet normal 0 0 1
    outer loop
      vertex 26.88 11.7183 2.7625
      vertex -26.88 11.7183 2.7625
      vertex 27.1 9.895 2.7625
    endloop
  endfacet
  facet normal 0 0 1
    outer loop
      vertex -26.88 11.7183 2.7625
      vertex -27.1 9.895 2.7625
      vertex 27.1 9.895 2.7625
    endloop
  endfacet
  facet normal -0 0 1
    outer loop
      vertex -28.6819 10.7378 2.7625
      vertex -27.1 9.895 2.7625
      vertex -27.325 11.8199 2.7625
    endloop
  endfacet
  facet normal 0 0 1
    outer loop
      vertex -27.325 11.8199 2.7625
      vertex -27.1 9.895 2.7625
      vertex -26.88 11.7183 2.7625
    endloop
  endfacet
  facet normal -0 0 1
    outer loop
      vertex 27.1 9.895 2.7625
      vertex 28.88 9.87 2.7625
      vertex 28.127 11.4337 2.7625
    endloop
  endfacet
  facet normal 0 0 1
    outer loop
      vertex 27.1 5.975 2.7625
      vertex 28.88 9.87 2.7625
      vertex 27.1 9.895 2.7625
    endloop
  endfacet
  facet normal 0 0 1
    outer loop
      vertex 28.88 9.87 2.7625
      vertex 27.1 5.975 2.7625
      vertex 28.88 5.975 2.7625
    endloop
  endfacet
  facet normal -0 0 1
    outer loop
      vertex 27.1 -5.975 2.7625
      vertex 28.88 -9.87 2.7625
      vertex 28.88 -5.975 2.7625
    endloop
  endfacet
  facet normal 0 0 1
    outer loop
      vertex 28.88 -9.87 2.7625
      vertex 27.1 -5.975 2.7625
      vertex 27.1 -9.895 2.7625
    endloop
  endfacet
  facet normal 0 0 1
    outer loop
      vertex 28.88 -9.87 2.7625
      vertex 27.1 -9.895 2.7625
      vertex 28.127 -11.4337 2.7625
    endloop
  endfacet
  facet normal 0 0 1
    outer loop
      vertex 27.1 -9.895 2.7625
      vertex 26.88 -11.7183 2.7625
      vertex 28.127 -11.4337 2.7625
    endloop
  endfacet
  facet normal 0 0 1
    outer loop
      vertex 26.88 -11.7183 2.7625
      vertex -26.88 -11.7183 2.7625
      vertex 26.88 -11.87 2.7625
    endloop
  endfacet
  facet normal 0 0 1
    outer loop
      vertex 27.1 -9.895 2.7625
      vertex -26.88 -11.7183 2.7625
      vertex 26.88 -11.7183 2.7625
    endloop
  endfacet
  facet normal -0 0 1
    outer loop
      vertex -27.1 -9.895 2.7625
      vertex -26.88 -11.7183 2.7625
      vertex 27.1 -9.895 2.7625
    endloop
  endfacet
  facet normal 0 0 1
    outer loop
      vertex -27.1 -9.895 2.7625
      vertex -27.325 -11.8199 2.7625
      vertex -26.88 -11.7183 2.7625
    endloop
  endfacet
  facet normal 0 0 1
    outer loop
      vertex -27.1 9.895 2.7625
      vertex -28.6819 9.87 2.7625
      vertex -27.1 -9.895 2.7625
    endloop
  endfacet
  facet normal 0 0 1
    outer loop
      vertex -27.1 9.895 2.7625
      vertex -28.6819 10.7378 2.7625
      vertex -28.6819 9.87 2.7625
    endloop
  endfacet
  facet normal -0 0 1
    outer loop
      vertex -28.6819 -9.87 2.7625
      vertex -27.1 -9.895 2.7625
      vertex -28.6819 9.87 2.7625
    endloop
  endfacet
  facet normal 0 0 1
    outer loop
      vertex -28.6819 -10.7378 2.7625
      vertex -27.1 -9.895 2.7625
      vertex -28.6819 -9.87 2.7625
    endloop
  endfacet
  facet normal 0 0 1
    outer loop
      vertex -27.1 -9.895 2.7625
      vertex -28.6819 -10.7378 2.7625
      vertex -27.325 -11.8199 2.7625
    endloop
  endfacet
  facet normal 0 0 1
    outer loop
      vertex 26.88 -11.87 2.7625
      vertex -26.88 -11.7183 2.7625
      vertex -26.88 -11.87 2.7625
    endloop
  endfacet
  facet normal -0 0 1
    outer loop
      vertex -28.88 9.87 2.7625
      vertex -28.6819 -9.87 2.7625
      vertex -28.6819 9.87 2.7625
    endloop
  endfacet
  facet normal 0 0 1
    outer loop
      vertex -28.6819 -9.87 2.7625
      vertex -28.88 9.87 2.7625
      vertex -28.88 -9.87 2.7625
    endloop
  endfacet
  facet normal 0 0 -1
    outer loop
      vertex -28.88 -9.87 -2.7625
      vertex -28.6819 9.87 -2.7625
      vertex -28.6819 -9.87 -2.7625
    endloop
  endfacet
  facet normal -0 0 -1
    outer loop
      vertex -28.6819 9.87 -2.7625
      vertex -28.88 -9.87 -2.7625
      vertex -28.88 9.87 -2.7625
    endloop
  endfacet
  facet normal 0 0 -1
    outer loop
      vertex -28.6819 -10.7378 -2.7625
      vertex -26.88 -11.7183 -2.7625
      vertex -27.325 -11.8199 -2.7625
    endloop
  endfacet
  facet normal 0 0 -1
    outer loop
      vertex -26.88 -11.7183 -2.7625
      vertex -28.6819 -9.87 -2.7625
      vertex -26.88 11.7183 -2.7625
    endloop
  endfacet
  facet normal 0 0 -1
    outer loop
      vertex -26.88 -11.7183 -2.7625
      vertex -28.6819 -10.7378 -2.7625
      vertex -28.6819 -9.87 -2.7625
    endloop
  endfacet
  facet normal 0 0 -1
    outer loop
      vertex -28.6819 9.87 -2.7625
      vertex -26.88 11.7183 -2.7625
      vertex -28.6819 -9.87 -2.7625
    endloop
  endfacet
  facet normal 0 0 -1
    outer loop
      vertex -28.6819 10.7378 -2.7625
      vertex -26.88 11.7183 -2.7625
      vertex -28.6819 9.87 -2.7625
    endloop
  endfacet
  facet normal -0 0 -1
    outer loop
      vertex -26.88 11.7183 -2.7625
      vertex -28.6819 10.7378 -2.7625
      vertex -27.325 11.8199 -2.7625
    endloop
  endfacet
  facet normal 0 0 -1
    outer loop
      vertex -26.88 -11.7183 -2.7625
      vertex 26.88 -11.7183 -2.7625
      vertex 26.88 -11.87 -2.7625
    endloop
  endfacet
  facet normal 0 0 -1
    outer loop
      vertex 26.88 -11.7183 -2.7625
      vertex -26.88 -11.7183 -2.7625
      vertex 26.88 11.7183 -2.7625
    endloop
  endfacet
  facet normal 0 0 -1
    outer loop
      vertex -26.88 -11.7183 -2.7625
      vertex 26.88 -11.87 -2.7625
      vertex -26.88 -11.87 -2.7625
    endloop
  endfacet
  facet normal 0 0 -1
    outer loop
      vertex -26.88 11.7183 -2.7625
      vertex 26.88 11.7183 -2.7625
      vertex -26.88 -11.7183 -2.7625
    endloop
  endfacet
  facet normal 0 0 -1
    outer loop
      vertex 26.88 11.7183 -2.7625
      vertex -26.88 11.7183 -2.7625
      vertex 26.88 11.87 -2.7625
    endloop
  endfacet
  facet normal -0 0 -1
    outer loop
      vertex 26.88 11.87 -2.7625
      vertex -26.88 11.7183 -2.7625
      vertex -26.88 11.87 -2.7625
    endloop
  endfacet
  facet normal 0 0 -1
    outer loop
      vertex 26.88 -11.7183 -2.7625
      vertex 28.88 -9.87 -2.7625
      vertex 28.127 -11.4337 -2.7625
    endloop
  endfacet
  facet normal -0 0 -1
    outer loop
      vertex 28.88 -9.87 -2.7625
      vertex 26.88 -11.7183 -2.7625
      vertex 28.88 9.87 -2.7625
    endloop
  endfacet
  facet normal 0 0 -1
    outer loop
      vertex 26.88 11.7183 -2.7625
      vertex 28.88 9.87 -2.7625
      vertex 26.88 -11.7183 -2.7625
    endloop
  endfacet
  facet normal 0 0 -1
    outer loop
      vertex 28.88 9.87 -2.7625
      vertex 26.88 11.7183 -2.7625
      vertex 28.127 11.4337 -2.7625
    endloop
  endfacet
  facet normal 0.22252 -0.974928 0
    outer loop
      vertex -27.325 -11.8199 -2.7625
      vertex -26.88 -11.7183 2.7625
      vertex -27.325 -11.8199 2.7625
    endloop
  endfacet
  facet normal 0.22252 -0.974928 0
    outer loop
      vertex -26.88 -11.7183 2.7625
      vertex -27.325 -11.8199 -2.7625
      vertex -26.88 -11.7183 -2.7625
    endloop
  endfacet
  facet normal -0.62349 -0.781831 0
    outer loop
      vertex -28.6819 -10.7378 -2.7625
      vertex -27.325 -11.8199 2.7625
      vertex -28.6819 -10.7378 2.7625
    endloop
  endfacet
  facet normal -0.62349 -0.781831 -0
    outer loop
      vertex -27.325 -11.8199 2.7625
      vertex -28.6819 -10.7378 -2.7625
      vertex -27.325 -11.8199 -2.7625
    endloop
  endfacet
  facet normal -1 0 0
    outer loop
      vertex -28.6819 9.87 -2.7625
      vertex -28.6819 10.7378 2.7625
      vertex -28.6819 10.7378 -2.7625
    endloop
  endfacet
  facet normal -1 -0 0
    outer loop
      vertex -28.6819 10.7378 2.7625
      vertex -28.6819 9.87 -2.7625
      vertex -28.6819 9.87 2.7625
    endloop
  endfacet
  facet normal 0.22252 0.974928 -0
    outer loop
      vertex -26.88 11.7183 -2.7625
      vertex -27.325 11.8199 2.7625
      vertex -26.88 11.7183 2.7625
    endloop
  endfacet
  facet normal 0.22252 0.974928 0
    outer loop
      vertex -27.325 11.8199 2.7625
      vertex -26.88 11.7183 -2.7625
      vertex -27.325 11.8199 -2.7625
    endloop
  endfacet
  facet normal -0.62349 0.781831 0
    outer loop
      vertex -27.325 11.8199 -2.7625
      vertex -28.6819 10.7378 2.7625
      vertex -27.325 11.8199 2.7625
    endloop
  endfacet
  facet normal -0.62349 0.781831 0
    outer loop
      vertex -28.6819 10.7378 2.7625
      vertex -27.325 11.8199 -2.7625
      vertex -28.6819 10.7378 -2.7625
    endloop
  endfacet
  facet normal 0.900969 -0.433883 0
    outer loop
      vertex 28.127 -11.4337 2.7625
      vertex 28.88 -9.87 -2.7625
      vertex 28.88 -9.87 2.7625
    endloop
  endfacet
  facet normal 0.900969 -0.433883 0
    outer loop
      vertex 28.88 -9.87 -2.7625
      vertex 28.127 -11.4337 2.7625
      vertex 28.127 -11.4337 -2.7625
    endloop
  endfacet
  facet normal 0.222521 -0.974928 0
    outer loop
      vertex 26.88 -11.7183 -2.7625
      vertex 28.127 -11.4337 2.7625
      vertex 26.88 -11.7183 2.7625
    endloop
  endfacet
  facet normal 0.222521 -0.974928 0
    outer loop
      vertex 28.127 -11.4337 2.7625
      vertex 26.88 -11.7183 -2.7625
      vertex 28.127 -11.4337 -2.7625
    endloop
  endfacet
  facet normal 0.900969 0.433883 0
    outer loop
      vertex 28.88 9.87 2.7625
      vertex 28.127 11.4337 -2.7625
      vertex 28.127 11.4337 2.7625
    endloop
  endfacet
  facet normal 0.900969 0.433883 0
    outer loop
      vertex 28.127 11.4337 -2.7625
      vertex 28.88 9.87 2.7625
      vertex 28.88 9.87 -2.7625
    endloop
  endfacet
  facet normal 0.222521 0.974928 -0
    outer loop
      vertex 28.127 11.4337 -2.7625
      vertex 26.88 11.7183 2.7625
      vertex 28.127 11.4337 2.7625
    endloop
  endfacet
  facet normal 0.222521 0.974928 0
    outer loop
      vertex 26.88 11.7183 2.7625
      vertex 28.127 11.4337 -2.7625
      vertex 26.88 11.7183 -2.7625
    endloop
  endfacet
  facet normal -1 0 0
    outer loop
      vertex -26.88 -11.87 -2.7625
      vertex -26.88 -11.7183 2.7625
      vertex -26.88 -11.7183 -2.7625
    endloop
  endfacet
  facet normal -1 -0 0
    outer loop
      vertex -26.88 -11.7183 2.7625
      vertex -26.88 -11.87 -2.7625
      vertex -26.88 -11.87 2.7625
    endloop
  endfacet
  facet normal -1 0 0
    outer loop
      vertex -26.88 11.7183 -2.7625
      vertex -26.88 11.87 2.7625
      vertex -26.88 11.87 -2.7625
    endloop
  endfacet
  facet normal -1 -0 0
    outer loop
      vertex -26.88 11.87 2.7625
      vertex -26.88 11.7183 -2.7625
      vertex -26.88 11.7183 2.7625
    endloop
  endfacet
  facet normal 1 -0 0
    outer loop
      vertex 26.88 -11.87 2.7625
      vertex 26.88 -11.7183 -2.7625
      vertex 26.88 -11.7183 2.7625
    endloop
  endfacet
  facet normal 1 0 0
    outer loop
      vertex 26.88 -11.7183 -2.7625
      vertex 26.88 -11.87 2.7625
      vertex 26.88 -11.87 -2.7625
    endloop
  endfacet
  facet normal 1 -0 0
    outer loop
      vertex 26.88 11.7183 2.7625
      vertex 26.88 11.87 -2.7625
      vertex 26.88 11.87 2.7625
    endloop
  endfacet
  facet normal 1 0 0
    outer loop
      vertex 26.88 11.87 -2.7625
      vertex 26.88 11.7183 2.7625
      vertex 26.88 11.7183 -2.7625
    endloop
  endfacet
  facet normal 0 -1 0
    outer loop
      vertex -26.88 -11.87 -2.7625
      vertex 26.88 -11.87 2.7625
      vertex -26.88 -11.87 2.7625
    endloop
  endfacet
  facet normal 0 -1 -0
    outer loop
      vertex 26.88 -11.87 2.7625
      vertex -26.88 -11.87 -2.7625
      vertex 26.88 -11.87 -2.7625
    endloop
  endfacet
  facet normal 0 1 -0
    outer loop
      vertex 26.88 11.87 -2.7625
      vertex -26.88 11.87 2.7625
      vertex 26.88 11.87 2.7625
    endloop
  endfacet
  facet normal 0 1 0
    outer loop
      vertex -26.88 11.87 2.7625
      vertex 26.88 11.87 -2.7625
      vertex -26.88 11.87 -2.7625
    endloop
  endfacet
  facet normal -1 0 0
    outer loop
      vertex -28.88 -9.87 -2.7625
      vertex -28.88 9.87 2.7625
      vertex -28.88 9.87 -2.7625
    endloop
  endfacet
  facet normal -1 -0 0
    outer loop
      vertex -28.88 9.87 2.7625
      vertex -28.88 -9.87 -2.7625
      vertex -28.88 -9.87 2.7625
    endloop
  endfacet
  facet normal 1 0 0
    outer loop
      vertex 28.88 -5.975 2.7625
      vertex 28.88 -9.87 2.7625
      vertex 28.88 -5.975 -0.25
    endloop
  endfacet
  facet normal 1 0 0
    outer loop
      vertex 28.88 5.975 -0.25
      vertex 28.88 9.87 2.7625
      vertex 28.88 5.975 2.7625
    endloop
  endfacet
  facet normal 1 0 0
    outer loop
      vertex 28.88 9.87 2.7625
      vertex 28.88 5.975 -0.25
      vertex 28.88 9.87 -2.7625
    endloop
  endfacet
  facet normal 1 -0 0
    outer loop
      vertex 28.88 -5.975 -0.25
      vertex 28.88 9.87 -2.7625
      vertex 28.88 5.975 -0.25
    endloop
  endfacet
  facet normal 1 0 0
    outer loop
      vertex 28.88 -5.975 -0.25
      vertex 28.88 -9.87 -2.7625
      vertex 28.88 9.87 -2.7625
    endloop
  endfacet
  facet normal 1 0 0
    outer loop
      vertex 28.88 -9.87 -2.7625
      vertex 28.88 -5.975 -0.25
      vertex 28.88 -9.87 2.7625
    endloop
  endfacet
  facet normal 0 -1 0
    outer loop
      vertex -28.88 -9.87 -2.7625
      vertex -28.6819 -9.87 2.7625
      vertex -28.88 -9.87 2.7625
    endloop
  endfacet
  facet normal 0 -1 -0
    outer loop
      vertex -28.6819 -9.87 2.7625
      vertex -28.88 -9.87 -2.7625
      vertex -28.6819 -9.87 -2.7625
    endloop
  endfacet
  facet normal 0 1 -0
    outer loop
      vertex -28.6819 9.87 -2.7625
      vertex -28.88 9.87 2.7625
      vertex -28.6819 9.87 2.7625
    endloop
  endfacet
  facet normal 0 1 0
    outer loop
      vertex -28.88 9.87 2.7625
      vertex -28.6819 9.87 -2.7625
      vertex -28.88 9.87 -2.7625
    endloop
  endfacet
  facet normal 1 -0 0
    outer loop
      vertex -27.1 -9.895 2.7625
      vertex -27.1 9.895 -0.263
      vertex -27.1 9.895 2.7625
    endloop
  endfacet
  facet normal 1 0 0
    outer loop
      vertex -27.1 9.895 -0.263
      vertex -27.1 -9.895 2.7625
      vertex -27.1 -9.895 -0.263
    endloop
  endfacet
  facet normal -1 0 0
    outer loop
      vertex 27.1 9.895 -0.263
      vertex 27.1 5.975 -0.25
      vertex 27.1 9.895 2.7625
    endloop
  endfacet
  facet normal -1 0 0
    outer loop
      vertex 27.1 9.895 -0.263
      vertex 27.1 -5.975 -0.25
      vertex 27.1 5.975 -0.25
    endloop
  endfacet
  facet normal -1 0 0
    outer loop
      vertex 27.1 -9.895 -0.263
      vertex 27.1 -5.975 -0.25
      vertex 27.1 9.895 -0.263
    endloop
  endfacet
  facet normal -1 0 0
    outer loop
      vertex 27.1 -9.895 -0.263
      vertex 27.1 -5.975 2.7625
      vertex 27.1 -5.975 -0.25
    endloop
  endfacet
  facet normal -1 -0 0
    outer loop
      vertex 27.1 -5.975 2.7625
      vertex 27.1 -9.895 -0.263
      vertex 27.1 -9.895 2.7625
    endloop
  endfacet
  facet normal -1 -0 0
    outer loop
      vertex 27.1 9.895 2.7625
      vertex 27.1 5.975 -0.25
      vertex 27.1 5.975 2.7625
    endloop
  endfacet
  facet normal 0 0 1
    outer loop
      vertex 27.1 9.895 -0.263
      vertex 26.575 9.2 -0.263
      vertex 27.1 -9.895 -0.263
    endloop
  endfacet
  facet normal 0 0 1
    outer loop
      vertex 27.1 9.895 -0.263
      vertex -2.575 9.2 -0.263
      vertex 26.575 9.2 -0.263
    endloop
  endfacet
  facet normal 0 0 1
    outer loop
      vertex -2.575 9.2 -0.263
      vertex -8.67 5.71 -0.263
      vertex -2.575 -9.2 -0.263
    endloop
  endfacet
  facet normal 0 0 1
    outer loop
      vertex -27.1 9.895 -0.263
      vertex -8.67 5.71 -0.263
      vertex -2.575 9.2 -0.263
    endloop
  endfacet
  facet normal 0 0 1
    outer loop
      vertex -27.1 -9.895 -0.263
      vertex -25.33 5.71 -0.263
      vertex -27.1 9.895 -0.263
    endloop
  endfacet
  facet normal 0 0 1
    outer loop
      vertex -8.67 5.71 -0.263
      vertex -27.1 9.895 -0.263
      vertex -25.33 5.71 -0.263
    endloop
  endfacet
  facet normal -0 0 1
    outer loop
      vertex -27.1 9.895 -0.263
      vertex -2.575 9.2 -0.263
      vertex 27.1 9.895 -0.263
    endloop
  endfacet
  facet normal -0 0 1
    outer loop
      vertex 26.575 -9.2 -0.263
      vertex 27.1 -9.895 -0.263
      vertex 26.575 9.2 -0.263
    endloop
  endfacet
  facet normal -0 0 1
    outer loop
      vertex -2.575 -9.2 -0.263
      vertex 27.1 -9.895 -0.263
      vertex 26.575 -9.2 -0.263
    endloop
  endfacet
  facet normal -0 0 1
    outer loop
      vertex -8.67 -8.71 -0.263
      vertex -2.575 -9.2 -0.263
      vertex -8.67 5.71 -0.263
    endloop
  endfacet
  facet normal 0 0 1
    outer loop
      vertex -27.1 -9.895 -0.263
      vertex -8.67 -8.71 -0.263
      vertex -25.33 -8.71 -0.263
    endloop
  endfacet
  facet normal 0 0 1
    outer loop
      vertex -8.67 -8.71 -0.263
      vertex -27.1 -9.895 -0.263
      vertex -2.575 -9.2 -0.263
    endloop
  endfacet
  facet normal 0 0 1
    outer loop
      vertex -2.575 -9.2 -0.263
      vertex -27.1 -9.895 -0.263
      vertex 27.1 -9.895 -0.263
    endloop
  endfacet
  facet normal 0 0 1
    outer loop
      vertex -25.33 5.71 -0.263
      vertex -27.1 -9.895 -0.263
      vertex -25.33 -8.71 -0.263
    endloop
  endfacet
  facet normal 0 1 -0
    outer loop
      vertex 27.1 -9.895 -0.263
      vertex -27.1 -9.895 2.7625
      vertex 27.1 -9.895 2.7625
    endloop
  endfacet
  facet normal 0 1 0
    outer loop
      vertex -27.1 -9.895 2.7625
      vertex 27.1 -9.895 -0.263
      vertex -27.1 -9.895 -0.263
    endloop
  endfacet
  facet normal 0 -1 0
    outer loop
      vertex -27.1 9.895 -0.263
      vertex 27.1 9.895 2.7625
      vertex -27.1 9.895 2.7625
    endloop
  endfacet
  facet normal 0 -1 -0
    outer loop
      vertex 27.1 9.895 2.7625
      vertex -27.1 9.895 -0.263
      vertex 27.1 9.895 -0.263
    endloop
  endfacet
  facet normal -0 0 1
    outer loop
      vertex 27.1 5.975 -0.25
      vertex 28.88 -5.975 -0.25
      vertex 28.88 5.975 -0.25
    endloop
  endfacet
  facet normal 0 0 1
    outer loop
      vertex 28.88 -5.975 -0.25
      vertex 27.1 5.975 -0.25
      vertex 27.1 -5.975 -0.25
    endloop
  endfacet
  facet normal 0 1 -0
    outer loop
      vertex 28.88 -5.975 -0.25
      vertex 27.1 -5.975 2.7625
      vertex 28.88 -5.975 2.7625
    endloop
  endfacet
  facet normal 0 1 0
    outer loop
      vertex 27.1 -5.975 2.7625
      vertex 28.88 -5.975 -0.25
      vertex 27.1 -5.975 -0.25
    endloop
  endfacet
  facet normal 0 -1 0
    outer loop
      vertex 27.1 5.975 -0.25
      vertex 28.88 5.975 2.7625
      vertex 27.1 5.975 2.7625
    endloop
  endfacet
  facet normal 0 -1 -0
    outer loop
      vertex 28.88 5.975 2.7625
      vertex 27.1 5.975 -0.25
      vertex 28.88 5.975 -0.25
    endloop
  endfacet
  facet normal 1 -0 0
    outer loop
      vertex -25.33 -8.71 -0.263
      vertex -25.33 5.71 -1.88
      vertex -25.33 5.71 -0.263
    endloop
  endfacet
  facet normal 1 0 0
    outer loop
      vertex -25.33 5.71 -1.88
      vertex -25.33 -8.71 -0.263
      vertex -25.33 -8.71 -1.88
    endloop
  endfacet
  facet normal -1 0 0
    outer loop
      vertex -8.67 -8.71 -1.88
      vertex -8.67 5.71 -0.263
      vertex -8.67 5.71 -1.88
    endloop
  endfacet
  facet normal -1 -0 0
    outer loop
      vertex -8.67 5.71 -0.263
      vertex -8.67 -8.71 -1.88
      vertex -8.67 -8.71 -0.263
    endloop
  endfacet
  facet normal -0 0 1
    outer loop
      vertex -25.33 5.71 -1.88
      vertex -8.67 -8.71 -1.88
      vertex -8.67 5.71 -1.88
    endloop
  endfacet
  facet normal 0 0 1
    outer loop
      vertex -8.67 -8.71 -1.88
      vertex -25.33 5.71 -1.88
      vertex -25.33 -8.71 -1.88
    endloop
  endfacet
  facet normal 0 1 -0
    outer loop
      vertex -8.67 -8.71 -1.88
      vertex -25.33 -8.71 -0.263
      vertex -8.67 -8.71 -0.263
    endloop
  endfacet
  facet normal 0 1 0
    outer loop
      vertex -25.33 -8.71 -0.263
      vertex -8.67 -8.71 -1.88
      vertex -25.33 -8.71 -1.88
    endloop
  endfacet
  facet normal 0 -1 0
    outer loop
      vertex -25.33 5.71 -1.88
      vertex -8.67 5.71 -0.263
      vertex -25.33 5.71 -0.263
    endloop
  endfacet
  facet normal 0 -1 -0
    outer loop
      vertex -8.67 5.71 -0.263
      vertex -25.33 5.71 -1.88
      vertex -8.67 5.71 -1.88
    endloop
  endfacet
  facet normal 1 -0 0
    outer loop
      vertex -2.575 -9.2 -0.263
      vertex -2.575 9.2 -1.88
      vertex -2.575 9.2 -0.263
    endloop
  endfacet
  facet normal 1 0 0
    outer loop
      vertex -2.575 9.2 -1.88
      vertex -2.575 -9.2 -0.263
      vertex -2.575 -9.2 -1.88
    endloop
  endfacet
  facet normal -1 0 0
    outer loop
      vertex 26.575 -9.2 -1.88
      vertex 26.575 9.2 -0.263
      vertex 26.575 9.2 -1.88
    endloop
  endfacet
  facet normal -1 -0 0
    outer loop
      vertex 26.575 9.2 -0.263
      vertex 26.575 -9.2 -1.88
      vertex 26.575 -9.2 -0.263
    endloop
  endfacet
  facet normal 0 -1 0
    outer loop
      vertex -2.575 9.2 -1.88
      vertex 26.575 9.2 -0.263
      vertex -2.575 9.2 -0.263
    endloop
  endfacet
  facet normal 0 -1 -0
    outer loop
      vertex 26.575 9.2 -0.263
      vertex -2.575 9.2 -1.88
      vertex 26.575 9.2 -1.88
    endloop
  endfacet
  facet normal -0 0 1
    outer loop
      vertex -2.575 9.2 -1.88
      vertex 26.575 -9.2 -1.88
      vertex 26.575 9.2 -1.88
    endloop
  endfacet
  facet normal 0 0 1
    outer loop
      vertex 26.575 -9.2 -1.88
      vertex -2.575 9.2 -1.88
      vertex -2.575 -9.2 -1.88
    endloop
  endfacet
  facet normal 0 1 -0
    outer loop
      vertex 26.575 -9.2 -1.88
      vertex -2.575 -9.2 -0.263
      vertex 26.575 -9.2 -0.263
    endloop
  endfacet
  facet normal 0 1 0
    outer loop
      vertex -2.575 -9.2 -0.263
      vertex 26.575 -9.2 -1.88
      vertex -2.575 -9.2 -1.88
    endloop
  endfacet
endsolid OpenSCAD_Model
