solid OpenSCAD_Model
  facet normal -1 0 0
    outer loop
      vertex -28.6819 -10.7378 -2.7625
      vertex -28.6819 -9.87 2.7625
      vertex -28.6819 -9.87 -2.7625
    endloop
  endfacet
  facet normal -1 -0 0
    outer loop
      vertex -28.6819 -9.87 2.7625
      vertex -28.6819 -10.7378 -2.7625
      vertex -28.6819 -10.7378 2.7625
    endloop
  endfacet
  facet normal -0.62349 -0.781831 0
    outer loop
      vertex -28.6819 -10.7378 -2.7625
      vertex -27.325 -11.8199 2.7625
      vertex -28.6819 -10.7378 2.7625
    endloop
  endfacet
  facet normal -0.62349 -0.781831 -0
    outer loop
      vertex -27.325 -11.8199 2.7625
      vertex -28.6819 -10.7378 -2.7625
      vertex -27.325 -11.8199 -2.7625
    endloop
  endfacet
  facet normal 0 0 1
    outer loop
      vertex 26.88 11.87 2.7625
      vertex 0 11.865 2.7625
      vertex 26.88 11.7183 2.7625
    endloop
  endfacet
  facet normal 0 0 1
    outer loop
      vertex 26.88 11.87 2.7625
      vertex -6 11.865 2.7625
      vertex 0 11.865 2.7625
    endloop
  endfacet
  facet normal -0 0 1
    outer loop
      vertex -26.88 11.87 2.7625
      vertex -6 11.865 2.7625
      vertex 26.88 11.87 2.7625
    endloop
  endfacet
  facet normal 0 0 1
    outer loop
      vertex -26.88 11.7183 2.7625
      vertex -6 11.865 2.7625
      vertex -26.88 11.87 2.7625
    endloop
  endfacet
  facet normal 0 0 1
    outer loop
      vertex -6 11.865 2.7625
      vertex -26.88 11.7183 2.7625
      vertex -6 9.975 2.7625
    endloop
  endfacet
  facet normal 0 0 1
    outer loop
      vertex -26.88 11.7183 2.7625
      vertex -27.1 9.975 2.7625
      vertex -6 9.975 2.7625
    endloop
  endfacet
  facet normal -0 0 1
    outer loop
      vertex -28.6819 10.7378 2.7625
      vertex -27.1 9.975 2.7625
      vertex -27.325 11.8199 2.7625
    endloop
  endfacet
  facet normal 0 0 1
    outer loop
      vertex -27.325 11.8199 2.7625
      vertex -27.1 9.975 2.7625
      vertex -26.88 11.7183 2.7625
    endloop
  endfacet
  facet normal 0 0 1
    outer loop
      vertex 26.88 11.7183 2.7625
      vertex 27.1 9.975 2.7625
      vertex 28.127 11.4337 2.7625
    endloop
  endfacet
  facet normal 0 0 1
    outer loop
      vertex 0 9.975 2.7625
      vertex 26.88 11.7183 2.7625
      vertex 0 11.865 2.7625
    endloop
  endfacet
  facet normal 0 0 1
    outer loop
      vertex 26.88 11.7183 2.7625
      vertex 0 9.975 2.7625
      vertex 27.1 9.975 2.7625
    endloop
  endfacet
  facet normal -0 0 1
    outer loop
      vertex 27.1 9.975 2.7625
      vertex 28.88 9.87 2.7625
      vertex 28.127 11.4337 2.7625
    endloop
  endfacet
  facet normal 0 0 1
    outer loop
      vertex 27.1 5.975 2.7625
      vertex 28.88 9.87 2.7625
      vertex 27.1 9.975 2.7625
    endloop
  endfacet
  facet normal 0 0 1
    outer loop
      vertex 28.88 9.87 2.7625
      vertex 27.1 5.975 2.7625
      vertex 28.88 5.975 2.7625
    endloop
  endfacet
  facet normal 0 0 1
    outer loop
      vertex 0 -9.975 2.7625
      vertex -26.88 -11.7183 2.7625
      vertex 0 -11.87 2.7625
    endloop
  endfacet
  facet normal -0 0 1
    outer loop
      vertex -27.1 -9.975 2.7625
      vertex -26.88 -11.7183 2.7625
      vertex 0 -9.975 2.7625
    endloop
  endfacet
  facet normal 0 0 1
    outer loop
      vertex -27.1 -9.975 2.7625
      vertex -27.325 -11.8199 2.7625
      vertex -26.88 -11.7183 2.7625
    endloop
  endfacet
  facet normal 0 0 1
    outer loop
      vertex -27.1 9.975 2.7625
      vertex -28.6819 9.87 2.7625
      vertex -27.1 -9.975 2.7625
    endloop
  endfacet
  facet normal 0 0 1
    outer loop
      vertex -27.1 9.975 2.7625
      vertex -28.6819 10.7378 2.7625
      vertex -28.6819 9.87 2.7625
    endloop
  endfacet
  facet normal -0 0 1
    outer loop
      vertex -28.6819 -9.87 2.7625
      vertex -27.1 -9.975 2.7625
      vertex -28.6819 9.87 2.7625
    endloop
  endfacet
  facet normal 0 0 1
    outer loop
      vertex -28.6819 -10.7378 2.7625
      vertex -27.1 -9.975 2.7625
      vertex -28.6819 -9.87 2.7625
    endloop
  endfacet
  facet normal 0 0 1
    outer loop
      vertex -27.1 -9.975 2.7625
      vertex -28.6819 -10.7378 2.7625
      vertex -27.325 -11.8199 2.7625
    endloop
  endfacet
  facet normal 0 0 1
    outer loop
      vertex 0 -11.87 2.7625
      vertex -26.88 -11.7183 2.7625
      vertex -26.88 -11.87 2.7625
    endloop
  endfacet
  facet normal -0 0 1
    outer loop
      vertex -28.88 9.87 2.7625
      vertex -28.6819 -9.87 2.7625
      vertex -28.6819 9.87 2.7625
    endloop
  endfacet
  facet normal 0 0 1
    outer loop
      vertex -28.6819 -9.87 2.7625
      vertex -28.88 9.87 2.7625
      vertex -28.88 -9.87 2.7625
    endloop
  endfacet
  facet normal -0 0 1
    outer loop
      vertex 27.1 -5.975 2.7625
      vertex 28.88 -9.87 2.7625
      vertex 28.88 -5.975 2.7625
    endloop
  endfacet
  facet normal 0 0 1
    outer loop
      vertex 28.88 -9.87 2.7625
      vertex 27.1 -5.975 2.7625
      vertex 27.1 -9.975 2.7625
    endloop
  endfacet
  facet normal 0 0 1
    outer loop
      vertex 28.88 -9.87 2.7625
      vertex 27.1 -9.975 2.7625
      vertex 28.127 -11.4337 2.7625
    endloop
  endfacet
  facet normal 0 0 1
    outer loop
      vertex 27.1 -9.975 2.7625
      vertex 26.88 -11.7183 2.7625
      vertex 28.127 -11.4337 2.7625
    endloop
  endfacet
  facet normal -0 0 1
    outer loop
      vertex 6 -9.975 2.7625
      vertex 26.88 -11.7183 2.7625
      vertex 27.1 -9.975 2.7625
    endloop
  endfacet
  facet normal 0 0 1
    outer loop
      vertex 6 -11.87 2.7625
      vertex 26.88 -11.7183 2.7625
      vertex 6 -9.975 2.7625
    endloop
  endfacet
  facet normal 0 0 1
    outer loop
      vertex 26.88 -11.7183 2.7625
      vertex 6 -11.87 2.7625
      vertex 26.88 -11.87 2.7625
    endloop
  endfacet
  facet normal 0 0 -1
    outer loop
      vertex -28.88 -9.87 -2.7625
      vertex -28.6819 9.87 -2.7625
      vertex -28.6819 -9.87 -2.7625
    endloop
  endfacet
  facet normal -0 0 -1
    outer loop
      vertex -28.6819 9.87 -2.7625
      vertex -28.88 -9.87 -2.7625
      vertex -28.88 9.87 -2.7625
    endloop
  endfacet
  facet normal 0 0 -1
    outer loop
      vertex -28.6819 -10.7378 -2.7625
      vertex -26.88 -11.7183 -2.7625
      vertex -27.325 -11.8199 -2.7625
    endloop
  endfacet
  facet normal 0 0 -1
    outer loop
      vertex -26.88 -11.7183 -2.7625
      vertex -28.6819 -9.87 -2.7625
      vertex -26.88 11.7183 -2.7625
    endloop
  endfacet
  facet normal 0 0 -1
    outer loop
      vertex -26.88 -11.7183 -2.7625
      vertex -28.6819 -10.7378 -2.7625
      vertex -28.6819 -9.87 -2.7625
    endloop
  endfacet
  facet normal 0 0 -1
    outer loop
      vertex -28.6819 9.87 -2.7625
      vertex -26.88 11.7183 -2.7625
      vertex -28.6819 -9.87 -2.7625
    endloop
  endfacet
  facet normal 0 0 -1
    outer loop
      vertex -28.6819 10.7378 -2.7625
      vertex -26.88 11.7183 -2.7625
      vertex -28.6819 9.87 -2.7625
    endloop
  endfacet
  facet normal -0 0 -1
    outer loop
      vertex -26.88 11.7183 -2.7625
      vertex -28.6819 10.7378 -2.7625
      vertex -27.325 11.8199 -2.7625
    endloop
  endfacet
  facet normal 0 0 -1
    outer loop
      vertex -26.88 -11.7183 -2.7625
      vertex 26.88 -11.7183 -2.7625
      vertex 26.88 -11.87 -2.7625
    endloop
  endfacet
  facet normal 0 0 -1
    outer loop
      vertex 26.88 -11.7183 -2.7625
      vertex -26.88 -11.7183 -2.7625
      vertex 26.88 11.7183 -2.7625
    endloop
  endfacet
  facet normal 0 0 -1
    outer loop
      vertex -26.88 -11.7183 -2.7625
      vertex 26.88 -11.87 -2.7625
      vertex -26.88 -11.87 -2.7625
    endloop
  endfacet
  facet normal 0 0 -1
    outer loop
      vertex -26.88 11.7183 -2.7625
      vertex 26.88 11.7183 -2.7625
      vertex -26.88 -11.7183 -2.7625
    endloop
  endfacet
  facet normal 0 0 -1
    outer loop
      vertex 26.88 11.7183 -2.7625
      vertex -26.88 11.7183 -2.7625
      vertex 26.88 11.87 -2.7625
    endloop
  endfacet
  facet normal -0 0 -1
    outer loop
      vertex 26.88 11.87 -2.7625
      vertex -26.88 11.7183 -2.7625
      vertex -26.88 11.87 -2.7625
    endloop
  endfacet
  facet normal 0 0 -1
    outer loop
      vertex 26.88 -11.7183 -2.7625
      vertex 28.88 -9.87 -2.7625
      vertex 28.127 -11.4337 -2.7625
    endloop
  endfacet
  facet normal -0 0 -1
    outer loop
      vertex 28.88 -9.87 -2.7625
      vertex 26.88 -11.7183 -2.7625
      vertex 28.88 9.87 -2.7625
    endloop
  endfacet
  facet normal 0 0 -1
    outer loop
      vertex 26.88 11.7183 -2.7625
      vertex 28.88 9.87 -2.7625
      vertex 26.88 -11.7183 -2.7625
    endloop
  endfacet
  facet normal 0 0 -1
    outer loop
      vertex 28.88 9.87 -2.7625
      vertex 26.88 11.7183 -2.7625
      vertex 28.127 11.4337 -2.7625
    endloop
  endfacet
  facet normal 0.22252 -0.974928 0
    outer loop
      vertex -27.325 -11.8199 -2.7625
      vertex -26.88 -11.7183 2.7625
      vertex -27.325 -11.8199 2.7625
    endloop
  endfacet
  facet normal 0.22252 -0.974928 0
    outer loop
      vertex -26.88 -11.7183 2.7625
      vertex -27.325 -11.8199 -2.7625
      vertex -26.88 -11.7183 -2.7625
    endloop
  endfacet
  facet normal -1 0 0
    outer loop
      vertex -28.6819 9.87 -2.7625
      vertex -28.6819 10.7378 2.7625
      vertex -28.6819 10.7378 -2.7625
    endloop
  endfacet
  facet normal -1 -0 0
    outer loop
      vertex -28.6819 10.7378 2.7625
      vertex -28.6819 9.87 -2.7625
      vertex -28.6819 9.87 2.7625
    endloop
  endfacet
  facet normal 0.22252 0.974928 -0
    outer loop
      vertex -26.88 11.7183 -2.7625
      vertex -27.325 11.8199 2.7625
      vertex -26.88 11.7183 2.7625
    endloop
  endfacet
  facet normal 0.22252 0.974928 0
    outer loop
      vertex -27.325 11.8199 2.7625
      vertex -26.88 11.7183 -2.7625
      vertex -27.325 11.8199 -2.7625
    endloop
  endfacet
  facet normal -0.62349 0.781831 0
    outer loop
      vertex -27.325 11.8199 -2.7625
      vertex -28.6819 10.7378 2.7625
      vertex -27.325 11.8199 2.7625
    endloop
  endfacet
  facet normal -0.62349 0.781831 0
    outer loop
      vertex -28.6819 10.7378 2.7625
      vertex -27.325 11.8199 -2.7625
      vertex -28.6819 10.7378 -2.7625
    endloop
  endfacet
  facet normal 0.900969 -0.433883 0
    outer loop
      vertex 28.127 -11.4337 2.7625
      vertex 28.88 -9.87 -2.7625
      vertex 28.88 -9.87 2.7625
    endloop
  endfacet
  facet normal 0.900969 -0.433883 0
    outer loop
      vertex 28.88 -9.87 -2.7625
      vertex 28.127 -11.4337 2.7625
      vertex 28.127 -11.4337 -2.7625
    endloop
  endfacet
  facet normal 0.222521 -0.974928 0
    outer loop
      vertex 26.88 -11.7183 -2.7625
      vertex 28.127 -11.4337 2.7625
      vertex 26.88 -11.7183 2.7625
    endloop
  endfacet
  facet normal 0.222521 -0.974928 0
    outer loop
      vertex 28.127 -11.4337 2.7625
      vertex 26.88 -11.7183 -2.7625
      vertex 28.127 -11.4337 -2.7625
    endloop
  endfacet
  facet normal 0.900969 0.433883 0
    outer loop
      vertex 28.88 9.87 2.7625
      vertex 28.127 11.4337 -2.7625
      vertex 28.127 11.4337 2.7625
    endloop
  endfacet
  facet normal 0.900969 0.433883 0
    outer loop
      vertex 28.127 11.4337 -2.7625
      vertex 28.88 9.87 2.7625
      vertex 28.88 9.87 -2.7625
    endloop
  endfacet
  facet normal 0.222521 0.974928 -0
    outer loop
      vertex 28.127 11.4337 -2.7625
      vertex 26.88 11.7183 2.7625
      vertex 28.127 11.4337 2.7625
    endloop
  endfacet
  facet normal 0.222521 0.974928 0
    outer loop
      vertex 26.88 11.7183 2.7625
      vertex 28.127 11.4337 -2.7625
      vertex 26.88 11.7183 -2.7625
    endloop
  endfacet
  facet normal -1 0 0
    outer loop
      vertex -26.88 -11.87 -2.7625
      vertex -26.88 -11.7183 2.7625
      vertex -26.88 -11.7183 -2.7625
    endloop
  endfacet
  facet normal -1 -0 0
    outer loop
      vertex -26.88 -11.7183 2.7625
      vertex -26.88 -11.87 -2.7625
      vertex -26.88 -11.87 2.7625
    endloop
  endfacet
  facet normal -1 0 0
    outer loop
      vertex -26.88 11.7183 -2.7625
      vertex -26.88 11.87 2.7625
      vertex -26.88 11.87 -2.7625
    endloop
  endfacet
  facet normal -1 -0 0
    outer loop
      vertex -26.88 11.87 2.7625
      vertex -26.88 11.7183 -2.7625
      vertex -26.88 11.7183 2.7625
    endloop
  endfacet
  facet normal 1 -0 0
    outer loop
      vertex 26.88 -11.87 2.7625
      vertex 26.88 -11.7183 -2.7625
      vertex 26.88 -11.7183 2.7625
    endloop
  endfacet
  facet normal 1 0 0
    outer loop
      vertex 26.88 -11.7183 -2.7625
      vertex 26.88 -11.87 2.7625
      vertex 26.88 -11.87 -2.7625
    endloop
  endfacet
  facet normal 1 -0 0
    outer loop
      vertex 26.88 11.7183 2.7625
      vertex 26.88 11.87 -2.7625
      vertex 26.88 11.87 2.7625
    endloop
  endfacet
  facet normal 1 0 0
    outer loop
      vertex 26.88 11.87 -2.7625
      vertex 26.88 11.7183 2.7625
      vertex 26.88 11.7183 -2.7625
    endloop
  endfacet
  facet normal 0 1 -0
    outer loop
      vertex 26.88 11.87 -2.7625
      vertex -26.88 11.87 2.7625
      vertex 26.88 11.87 2.7625
    endloop
  endfacet
  facet normal 0 1 0
    outer loop
      vertex -26.88 11.87 2.7625
      vertex 26.88 11.87 -2.7625
      vertex -26.88 11.87 -2.7625
    endloop
  endfacet
  facet normal 0 -1 0
    outer loop
      vertex -26.88 -11.87 2.7625
      vertex 0 -11.87 0
      vertex 0 -11.87 2.7625
    endloop
  endfacet
  facet normal 0 -1 0
    outer loop
      vertex 26.88 -11.87 -2.7625
      vertex 0 -11.87 0
      vertex -26.88 -11.87 -2.7625
    endloop
  endfacet
  facet normal 0 -1 0
    outer loop
      vertex -26.88 -11.87 -2.7625
      vertex 0 -11.87 0
      vertex -26.88 -11.87 2.7625
    endloop
  endfacet
  facet normal 0 -1 0
    outer loop
      vertex 6 -11.87 0
      vertex 26.88 -11.87 2.7625
      vertex 6 -11.87 2.7625
    endloop
  endfacet
  facet normal 0 -1 0
    outer loop
      vertex 6 -11.87 0
      vertex 26.88 -11.87 -2.7625
      vertex 26.88 -11.87 2.7625
    endloop
  endfacet
  facet normal 0 -1 0
    outer loop
      vertex 0 -11.87 0
      vertex 26.88 -11.87 -2.7625
      vertex 6 -11.87 0
    endloop
  endfacet
  facet normal -1 0 0
    outer loop
      vertex -28.88 -9.87 -2.7625
      vertex -28.88 9.87 2.7625
      vertex -28.88 9.87 -2.7625
    endloop
  endfacet
  facet normal -1 -0 0
    outer loop
      vertex -28.88 9.87 2.7625
      vertex -28.88 -9.87 -2.7625
      vertex -28.88 -9.87 2.7625
    endloop
  endfacet
  facet normal 1 0 0
    outer loop
      vertex 28.88 -5.975 2.7625
      vertex 28.88 -9.87 2.7625
      vertex 28.88 -5.975 -0.25
    endloop
  endfacet
  facet normal 1 0 0
    outer loop
      vertex 28.88 5.975 -0.25
      vertex 28.88 9.87 2.7625
      vertex 28.88 5.975 2.7625
    endloop
  endfacet
  facet normal 1 0 0
    outer loop
      vertex 28.88 9.87 2.7625
      vertex 28.88 5.975 -0.25
      vertex 28.88 9.87 -2.7625
    endloop
  endfacet
  facet normal 1 -0 0
    outer loop
      vertex 28.88 -5.975 -0.25
      vertex 28.88 9.87 -2.7625
      vertex 28.88 5.975 -0.25
    endloop
  endfacet
  facet normal 1 0 0
    outer loop
      vertex 28.88 -5.975 -0.25
      vertex 28.88 -9.87 -2.7625
      vertex 28.88 9.87 -2.7625
    endloop
  endfacet
  facet normal 1 0 0
    outer loop
      vertex 28.88 -9.87 -2.7625
      vertex 28.88 -5.975 -0.25
      vertex 28.88 -9.87 2.7625
    endloop
  endfacet
  facet normal 0 1 -0
    outer loop
      vertex -28.6819 9.87 -2.7625
      vertex -28.88 9.87 2.7625
      vertex -28.6819 9.87 2.7625
    endloop
  endfacet
  facet normal 0 1 0
    outer loop
      vertex -28.88 9.87 2.7625
      vertex -28.6819 9.87 -2.7625
      vertex -28.88 9.87 -2.7625
    endloop
  endfacet
  facet normal 0 -1 0
    outer loop
      vertex -28.88 -9.87 -2.7625
      vertex -28.6819 -9.87 2.7625
      vertex -28.88 -9.87 2.7625
    endloop
  endfacet
  facet normal 0 -1 -0
    outer loop
      vertex -28.6819 -9.87 2.7625
      vertex -28.88 -9.87 -2.7625
      vertex -28.6819 -9.87 -2.7625
    endloop
  endfacet
  facet normal 1 -0 0
    outer loop
      vertex -27.1 -9.975 2.7625
      vertex -27.1 9.975 -0.263
      vertex -27.1 9.975 2.7625
    endloop
  endfacet
  facet normal 1 0 0
    outer loop
      vertex -27.1 9.975 -0.263
      vertex -27.1 -9.975 2.7625
      vertex -27.1 -9.975 -0.263
    endloop
  endfacet
  facet normal -1 0 0
    outer loop
      vertex 27.1 9.975 -0.263
      vertex 27.1 5.975 -0.25
      vertex 27.1 9.975 2.7625
    endloop
  endfacet
  facet normal -1 0 0
    outer loop
      vertex 27.1 9.975 -0.263
      vertex 27.1 -5.975 -0.25
      vertex 27.1 5.975 -0.25
    endloop
  endfacet
  facet normal -1 0 0
    outer loop
      vertex 27.1 -9.975 -0.263
      vertex 27.1 -5.975 -0.25
      vertex 27.1 9.975 -0.263
    endloop
  endfacet
  facet normal -1 0 0
    outer loop
      vertex 27.1 -9.975 -0.263
      vertex 27.1 -5.975 2.7625
      vertex 27.1 -5.975 -0.25
    endloop
  endfacet
  facet normal -1 -0 0
    outer loop
      vertex 27.1 -5.975 2.7625
      vertex 27.1 -9.975 -0.263
      vertex 27.1 -9.975 2.7625
    endloop
  endfacet
  facet normal -1 -0 0
    outer loop
      vertex 27.1 9.975 2.7625
      vertex 27.1 5.975 -0.25
      vertex 27.1 5.975 2.7625
    endloop
  endfacet
  facet normal 0 0 1
    outer loop
      vertex 27.1 9.975 -0.263
      vertex 26.575 9.2 -0.263
      vertex 27.1 -9.975 -0.263
    endloop
  endfacet
  facet normal 0 0 1
    outer loop
      vertex 27.1 9.975 -0.263
      vertex -2.575 9.2 -0.263
      vertex 26.575 9.2 -0.263
    endloop
  endfacet
  facet normal 0 0 1
    outer loop
      vertex -2.575 9.2 -0.263
      vertex -8.67 5.71 -0.263
      vertex -2.575 -9.2 -0.263
    endloop
  endfacet
  facet normal 0 0 1
    outer loop
      vertex -27.1 9.975 -0.263
      vertex -8.67 5.71 -0.263
      vertex -2.575 9.2 -0.263
    endloop
  endfacet
  facet normal 0 0 1
    outer loop
      vertex -27.1 -9.975 -0.263
      vertex -25.33 5.71 -0.263
      vertex -27.1 9.975 -0.263
    endloop
  endfacet
  facet normal 0 0 1
    outer loop
      vertex -8.67 5.71 -0.263
      vertex -27.1 9.975 -0.263
      vertex -25.33 5.71 -0.263
    endloop
  endfacet
  facet normal -0 0 1
    outer loop
      vertex -27.1 9.975 -0.263
      vertex -2.575 9.2 -0.263
      vertex 27.1 9.975 -0.263
    endloop
  endfacet
  facet normal -0 0 1
    outer loop
      vertex 26.575 -9.2 -0.263
      vertex 27.1 -9.975 -0.263
      vertex 26.575 9.2 -0.263
    endloop
  endfacet
  facet normal -0 0 1
    outer loop
      vertex -2.575 -9.2 -0.263
      vertex 27.1 -9.975 -0.263
      vertex 26.575 -9.2 -0.263
    endloop
  endfacet
  facet normal -0 0 1
    outer loop
      vertex -8.67 -8.71 -0.263
      vertex -2.575 -9.2 -0.263
      vertex -8.67 5.71 -0.263
    endloop
  endfacet
  facet normal 0 0 1
    outer loop
      vertex -27.1 -9.975 -0.263
      vertex -8.67 -8.71 -0.263
      vertex -25.33 -8.71 -0.263
    endloop
  endfacet
  facet normal 0 0 1
    outer loop
      vertex -8.67 -8.71 -0.263
      vertex -27.1 -9.975 -0.263
      vertex -2.575 -9.2 -0.263
    endloop
  endfacet
  facet normal 0 0 1
    outer loop
      vertex -2.575 -9.2 -0.263
      vertex -27.1 -9.975 -0.263
      vertex 27.1 -9.975 -0.263
    endloop
  endfacet
  facet normal 0 0 1
    outer loop
      vertex -25.33 5.71 -0.263
      vertex -27.1 -9.975 -0.263
      vertex -25.33 -8.71 -0.263
    endloop
  endfacet
  facet normal 0 1 0
    outer loop
      vertex 27.1 -9.975 2.7625
      vertex 6 -9.975 0
      vertex 6 -9.975 2.7625
    endloop
  endfacet
  facet normal 0 1 0
    outer loop
      vertex 6 -9.975 0
      vertex 27.1 -9.975 -0.263
      vertex 0 -9.975 0
    endloop
  endfacet
  facet normal 0 1 -0
    outer loop
      vertex 27.1 -9.975 -0.263
      vertex 6 -9.975 0
      vertex 27.1 -9.975 2.7625
    endloop
  endfacet
  facet normal 0 1 -0
    outer loop
      vertex 0 -9.975 0
      vertex -27.1 -9.975 2.7625
      vertex 0 -9.975 2.7625
    endloop
  endfacet
  facet normal 0 1 0
    outer loop
      vertex 0 -9.975 0
      vertex -27.1 -9.975 -0.263
      vertex -27.1 -9.975 2.7625
    endloop
  endfacet
  facet normal 0 1 0
    outer loop
      vertex -27.1 -9.975 -0.263
      vertex 0 -9.975 0
      vertex 27.1 -9.975 -0.263
    endloop
  endfacet
  facet normal 0 -1 0
    outer loop
      vertex -27.1 9.975 2.7625
      vertex -6 9.975 0
      vertex -6 9.975 2.7625
    endloop
  endfacet
  facet normal 0 -1 -0
    outer loop
      vertex -6 9.975 0
      vertex -27.1 9.975 -0.263
      vertex 0 9.975 0
    endloop
  endfacet
  facet normal 0 -1 0
    outer loop
      vertex -27.1 9.975 -0.263
      vertex -6 9.975 0
      vertex -27.1 9.975 2.7625
    endloop
  endfacet
  facet normal 0 -1 0
    outer loop
      vertex 0 9.975 0
      vertex 27.1 9.975 2.7625
      vertex 0 9.975 2.7625
    endloop
  endfacet
  facet normal 0 -1 0
    outer loop
      vertex 0 9.975 0
      vertex 27.1 9.975 -0.263
      vertex 27.1 9.975 2.7625
    endloop
  endfacet
  facet normal 0 -1 0
    outer loop
      vertex 27.1 9.975 -0.263
      vertex 0 9.975 0
      vertex -27.1 9.975 -0.263
    endloop
  endfacet
  facet normal 0 -1 0
    outer loop
      vertex 27.1 5.975 -0.25
      vertex 28.88 5.975 2.7625
      vertex 27.1 5.975 2.7625
    endloop
  endfacet
  facet normal 0 -1 -0
    outer loop
      vertex 28.88 5.975 2.7625
      vertex 27.1 5.975 -0.25
      vertex 28.88 5.975 -0.25
    endloop
  endfacet
  facet normal -0 0 1
    outer loop
      vertex 27.1 5.975 -0.25
      vertex 28.88 -5.975 -0.25
      vertex 28.88 5.975 -0.25
    endloop
  endfacet
  facet normal 0 0 1
    outer loop
      vertex 28.88 -5.975 -0.25
      vertex 27.1 5.975 -0.25
      vertex 27.1 -5.975 -0.25
    endloop
  endfacet
  facet normal 0 1 -0
    outer loop
      vertex 28.88 -5.975 -0.25
      vertex 27.1 -5.975 2.7625
      vertex 28.88 -5.975 2.7625
    endloop
  endfacet
  facet normal 0 1 0
    outer loop
      vertex 27.1 -5.975 2.7625
      vertex 28.88 -5.975 -0.25
      vertex 27.1 -5.975 -0.25
    endloop
  endfacet
  facet normal 1 -0 0
    outer loop
      vertex -25.33 -8.71 -0.263
      vertex -25.33 5.71 -1.88
      vertex -25.33 5.71 -0.263
    endloop
  endfacet
  facet normal 1 0 0
    outer loop
      vertex -25.33 5.71 -1.88
      vertex -25.33 -8.71 -0.263
      vertex -25.33 -8.71 -1.88
    endloop
  endfacet
  facet normal -1 0 0
    outer loop
      vertex -8.67 -8.71 -1.88
      vertex -8.67 5.71 -0.263
      vertex -8.67 5.71 -1.88
    endloop
  endfacet
  facet normal -1 -0 0
    outer loop
      vertex -8.67 5.71 -0.263
      vertex -8.67 -8.71 -1.88
      vertex -8.67 -8.71 -0.263
    endloop
  endfacet
  facet normal 0 -1 0
    outer loop
      vertex -25.33 5.71 -1.88
      vertex -8.67 5.71 -0.263
      vertex -25.33 5.71 -0.263
    endloop
  endfacet
  facet normal 0 -1 -0
    outer loop
      vertex -8.67 5.71 -0.263
      vertex -25.33 5.71 -1.88
      vertex -8.67 5.71 -1.88
    endloop
  endfacet
  facet normal -0 0 1
    outer loop
      vertex -25.33 5.71 -1.88
      vertex -8.67 -8.71 -1.88
      vertex -8.67 5.71 -1.88
    endloop
  endfacet
  facet normal 0 0 1
    outer loop
      vertex -8.67 -8.71 -1.88
      vertex -25.33 5.71 -1.88
      vertex -25.33 -8.71 -1.88
    endloop
  endfacet
  facet normal 0 1 -0
    outer loop
      vertex -8.67 -8.71 -1.88
      vertex -25.33 -8.71 -0.263
      vertex -8.67 -8.71 -0.263
    endloop
  endfacet
  facet normal 0 1 0
    outer loop
      vertex -25.33 -8.71 -0.263
      vertex -8.67 -8.71 -1.88
      vertex -25.33 -8.71 -1.88
    endloop
  endfacet
  facet normal 1 -0 0
    outer loop
      vertex -2.575 -9.2 -0.263
      vertex -2.575 9.2 -1.88
      vertex -2.575 9.2 -0.263
    endloop
  endfacet
  facet normal 1 0 0
    outer loop
      vertex -2.575 9.2 -1.88
      vertex -2.575 -9.2 -0.263
      vertex -2.575 -9.2 -1.88
    endloop
  endfacet
  facet normal -1 0 0
    outer loop
      vertex 26.575 -9.2 -1.88
      vertex 26.575 9.2 -0.263
      vertex 26.575 9.2 -1.88
    endloop
  endfacet
  facet normal -1 -0 0
    outer loop
      vertex 26.575 9.2 -0.263
      vertex 26.575 -9.2 -1.88
      vertex 26.575 -9.2 -0.263
    endloop
  endfacet
  facet normal 0 -1 0
    outer loop
      vertex -2.575 9.2 -1.88
      vertex 26.575 9.2 -0.263
      vertex -2.575 9.2 -0.263
    endloop
  endfacet
  facet normal 0 -1 -0
    outer loop
      vertex 26.575 9.2 -0.263
      vertex -2.575 9.2 -1.88
      vertex 26.575 9.2 -1.88
    endloop
  endfacet
  facet normal -0 0 1
    outer loop
      vertex -2.575 9.2 -1.88
      vertex 26.575 -9.2 -1.88
      vertex 26.575 9.2 -1.88
    endloop
  endfacet
  facet normal 0 0 1
    outer loop
      vertex 26.575 -9.2 -1.88
      vertex -2.575 9.2 -1.88
      vertex -2.575 -9.2 -1.88
    endloop
  endfacet
  facet normal 0 1 -0
    outer loop
      vertex 26.575 -9.2 -1.88
      vertex -2.575 -9.2 -0.263
      vertex 26.575 -9.2 -0.263
    endloop
  endfacet
  facet normal 0 1 0
    outer loop
      vertex -2.575 -9.2 -0.263
      vertex 26.575 -9.2 -1.88
      vertex -2.575 -9.2 -1.88
    endloop
  endfacet
  facet normal 1 -0 0
    outer loop
      vertex 0 -11.87 2.7625
      vertex 0 -9.975 0
      vertex 0 -9.975 2.7625
    endloop
  endfacet
  facet normal 1 0 0
    outer loop
      vertex 0 -9.975 0
      vertex 0 -11.87 2.7625
      vertex 0 -11.87 0
    endloop
  endfacet
  facet normal -1 0 0
    outer loop
      vertex 6 -11.87 0
      vertex 6 -9.975 2.7625
      vertex 6 -9.975 0
    endloop
  endfacet
  facet normal -1 -0 0
    outer loop
      vertex 6 -9.975 2.7625
      vertex 6 -11.87 0
      vertex 6 -11.87 2.7625
    endloop
  endfacet
  facet normal -0 0 1
    outer loop
      vertex 0 -9.975 0
      vertex 6 -11.87 0
      vertex 6 -9.975 0
    endloop
  endfacet
  facet normal 0 0 1
    outer loop
      vertex 6 -11.87 0
      vertex 0 -9.975 0
      vertex 0 -11.87 0
    endloop
  endfacet
  facet normal 1 -0 0
    outer loop
      vertex -6 9.975 2.7625
      vertex -6 11.865 0
      vertex -6 11.865 2.7625
    endloop
  endfacet
  facet normal 1 0 0
    outer loop
      vertex -6 11.865 0
      vertex -6 9.975 2.7625
      vertex -6 9.975 0
    endloop
  endfacet
  facet normal -1 0 0
    outer loop
      vertex 0 9.975 0
      vertex 0 11.865 2.7625
      vertex 0 11.865 0
    endloop
  endfacet
  facet normal -1 -0 0
    outer loop
      vertex 0 11.865 2.7625
      vertex 0 9.975 0
      vertex 0 9.975 2.7625
    endloop
  endfacet
  facet normal 0 -1 0
    outer loop
      vertex -6 11.865 0
      vertex 0 11.865 2.7625
      vertex -6 11.865 2.7625
    endloop
  endfacet
  facet normal 0 -1 -0
    outer loop
      vertex 0 11.865 2.7625
      vertex -6 11.865 0
      vertex 0 11.865 0
    endloop
  endfacet
  facet normal -0 0 1
    outer loop
      vertex -6 11.865 0
      vertex 0 9.975 0
      vertex 0 11.865 0
    endloop
  endfacet
  facet normal 0 0 1
    outer loop
      vertex 0 9.975 0
      vertex -6 11.865 0
      vertex -6 9.975 0
    endloop
  endfacet
  facet normal -1 0 0
    outer loop
      vertex -28.6819 14.2622 -2.8
      vertex -28.6819 15.13 -0.8
      vertex -28.6819 15.13 -2.8
    endloop
  endfacet
  facet normal -1 -0 0
    outer loop
      vertex -28.6819 15.13 -0.8
      vertex -28.6819 14.2622 -2.8
      vertex -28.6819 14.2622 -0.8
    endloop
  endfacet
  facet normal -0.62349 -0.781831 0
    outer loop
      vertex -28.6819 14.2622 -2.8
      vertex -27.325 13.1801 -0.8
      vertex -28.6819 14.2622 -0.8
    endloop
  endfacet
  facet normal -0.62349 -0.781831 -0
    outer loop
      vertex -27.325 13.1801 -0.8
      vertex -28.6819 14.2622 -2.8
      vertex -27.325 13.1801 -2.8
    endloop
  endfacet
  facet normal 0 0 1
    outer loop
      vertex 26.88 36.87 -0.8
      vertex 0 36.865 -0.8
      vertex 26.88 36.7183 -0.8
    endloop
  endfacet
  facet normal 0 0 1
    outer loop
      vertex 26.88 36.87 -0.8
      vertex -6 36.865 -0.8
      vertex 0 36.865 -0.8
    endloop
  endfacet
  facet normal -0 0 1
    outer loop
      vertex -26.88 36.87 -0.8
      vertex -6 36.865 -0.8
      vertex 26.88 36.87 -0.8
    endloop
  endfacet
  facet normal 0 0 1
    outer loop
      vertex -26.88 36.7183 -0.8
      vertex -6 36.865 -0.8
      vertex -26.88 36.87 -0.8
    endloop
  endfacet
  facet normal 0 0 1
    outer loop
      vertex -6 36.865 -0.8
      vertex -26.88 36.7183 -0.8
      vertex -6 34.975 -0.8
    endloop
  endfacet
  facet normal 0 0 1
    outer loop
      vertex -26.88 36.7183 -0.8
      vertex -27.1 34.975 -0.8
      vertex -6 34.975 -0.8
    endloop
  endfacet
  facet normal -0 0 1
    outer loop
      vertex -28.6819 35.7378 -0.8
      vertex -27.1 34.975 -0.8
      vertex -27.325 36.8199 -0.8
    endloop
  endfacet
  facet normal 0 0 1
    outer loop
      vertex -27.325 36.8199 -0.8
      vertex -27.1 34.975 -0.8
      vertex -26.88 36.7183 -0.8
    endloop
  endfacet
  facet normal -0 0 1
    outer loop
      vertex 27.1 34.975 -0.8
      vertex 28.88 34.87 -0.8
      vertex 28.127 36.4337 -0.8
    endloop
  endfacet
  facet normal 0 0 1
    outer loop
      vertex 28.88 34.87 -0.8
      vertex 27.1 34.975 -0.8
      vertex 28.88 15.13 -0.8
    endloop
  endfacet
  facet normal 0 0 1
    outer loop
      vertex 27.1 15.025 -0.8
      vertex 28.88 15.13 -0.8
      vertex 27.1 34.975 -0.8
    endloop
  endfacet
  facet normal 0 0 1
    outer loop
      vertex 26.88 36.7183 -0.8
      vertex 27.1 34.975 -0.8
      vertex 28.127 36.4337 -0.8
    endloop
  endfacet
  facet normal 0 0 1
    outer loop
      vertex 0 34.975 -0.8
      vertex 26.88 36.7183 -0.8
      vertex 0 36.865 -0.8
    endloop
  endfacet
  facet normal 0 0 1
    outer loop
      vertex 26.88 36.7183 -0.8
      vertex 0 34.975 -0.8
      vertex 27.1 34.975 -0.8
    endloop
  endfacet
  facet normal 0 0 1
    outer loop
      vertex 28.88 15.13 -0.8
      vertex 27.1 15.025 -0.8
      vertex 28.127 13.5663 -0.8
    endloop
  endfacet
  facet normal 0 0 1
    outer loop
      vertex 27.1 15.025 -0.8
      vertex 26.88 13.2817 -0.8
      vertex 28.127 13.5663 -0.8
    endloop
  endfacet
  facet normal -0 0 1
    outer loop
      vertex 6 15.025 -0.8
      vertex 26.88 13.2817 -0.8
      vertex 27.1 15.025 -0.8
    endloop
  endfacet
  facet normal 0 0 1
    outer loop
      vertex 6 13.13 -0.8
      vertex 26.88 13.2817 -0.8
      vertex 6 15.025 -0.8
    endloop
  endfacet
  facet normal 0 0 1
    outer loop
      vertex 26.88 13.2817 -0.8
      vertex 6 13.13 -0.8
      vertex 26.88 13.13 -0.8
    endloop
  endfacet
  facet normal 0 0 1
    outer loop
      vertex 0 15.025 -0.8
      vertex -26.88 13.2817 -0.8
      vertex 0 13.13 -0.8
    endloop
  endfacet
  facet normal -0 0 1
    outer loop
      vertex -27.1 15.025 -0.8
      vertex -26.88 13.2817 -0.8
      vertex 0 15.025 -0.8
    endloop
  endfacet
  facet normal 0 0 1
    outer loop
      vertex -27.1 15.025 -0.8
      vertex -27.325 13.1801 -0.8
      vertex -26.88 13.2817 -0.8
    endloop
  endfacet
  facet normal 0 0 1
    outer loop
      vertex -27.1 34.975 -0.8
      vertex -28.6819 34.87 -0.8
      vertex -27.1 15.025 -0.8
    endloop
  endfacet
  facet normal 0 0 1
    outer loop
      vertex -27.1 34.975 -0.8
      vertex -28.6819 35.7378 -0.8
      vertex -28.6819 34.87 -0.8
    endloop
  endfacet
  facet normal -0 0 1
    outer loop
      vertex -28.6819 15.13 -0.8
      vertex -27.1 15.025 -0.8
      vertex -28.6819 34.87 -0.8
    endloop
  endfacet
  facet normal 0 0 1
    outer loop
      vertex -28.6819 14.2622 -0.8
      vertex -27.1 15.025 -0.8
      vertex -28.6819 15.13 -0.8
    endloop
  endfacet
  facet normal 0 0 1
    outer loop
      vertex -27.1 15.025 -0.8
      vertex -28.6819 14.2622 -0.8
      vertex -27.325 13.1801 -0.8
    endloop
  endfacet
  facet normal 0 0 1
    outer loop
      vertex 0 13.13 -0.8
      vertex -26.88 13.2817 -0.8
      vertex -26.88 13.13 -0.8
    endloop
  endfacet
  facet normal -0 0 1
    outer loop
      vertex -28.88 34.87 -0.8
      vertex -28.6819 15.13 -0.8
      vertex -28.6819 34.87 -0.8
    endloop
  endfacet
  facet normal 0 0 1
    outer loop
      vertex -28.6819 15.13 -0.8
      vertex -28.88 34.87 -0.8
      vertex -28.88 15.13 -0.8
    endloop
  endfacet
  facet normal 0 0 -1
    outer loop
      vertex -28.88 15.13 -2.8
      vertex -28.6819 34.87 -2.8
      vertex -28.6819 15.13 -2.8
    endloop
  endfacet
  facet normal -0 0 -1
    outer loop
      vertex -28.6819 34.87 -2.8
      vertex -28.88 15.13 -2.8
      vertex -28.88 34.87 -2.8
    endloop
  endfacet
  facet normal 0 0 -1
    outer loop
      vertex -28.6819 14.2622 -2.8
      vertex -26.88 13.2817 -2.8
      vertex -27.325 13.1801 -2.8
    endloop
  endfacet
  facet normal 0 0 -1
    outer loop
      vertex -26.88 13.2817 -2.8
      vertex -28.6819 15.13 -2.8
      vertex -26.88 36.7183 -2.8
    endloop
  endfacet
  facet normal 0 0 -1
    outer loop
      vertex -26.88 13.2817 -2.8
      vertex -28.6819 14.2622 -2.8
      vertex -28.6819 15.13 -2.8
    endloop
  endfacet
  facet normal 0 0 -1
    outer loop
      vertex -28.6819 34.87 -2.8
      vertex -26.88 36.7183 -2.8
      vertex -28.6819 15.13 -2.8
    endloop
  endfacet
  facet normal 0 0 -1
    outer loop
      vertex -28.6819 35.7378 -2.8
      vertex -26.88 36.7183 -2.8
      vertex -28.6819 34.87 -2.8
    endloop
  endfacet
  facet normal -0 0 -1
    outer loop
      vertex -26.88 36.7183 -2.8
      vertex -28.6819 35.7378 -2.8
      vertex -27.325 36.8199 -2.8
    endloop
  endfacet
  facet normal 0 0 -1
    outer loop
      vertex -4.75302 29.4363 -2.8
      vertex -1.80194 30.1322 -2.8
      vertex -4.75302 26.5637 -2.8
    endloop
  endfacet
  facet normal -0 0 -1
    outer loop
      vertex -1.80194 30.1322 -2.8
      vertex -4.75302 29.4363 -2.8
      vertex -4 31 -2.8
    endloop
  endfacet
  facet normal 0 0 -1
    outer loop
      vertex -6.44504 26.9499 -2.8
      vertex -4.75302 29.4363 -2.8
      vertex -4.75302 26.5637 -2.8
    endloop
  endfacet
  facet normal 0 0 -1
    outer loop
      vertex -6.44504 26.9499 -2.8
      vertex -6.44504 29.0501 -2.8
      vertex -4.75302 29.4363 -2.8
    endloop
  endfacet
  facet normal 0 0 -1
    outer loop
      vertex -7.80194 25.8678 -2.8
      vertex -6.44504 29.0501 -2.8
      vertex -6.44504 26.9499 -2.8
    endloop
  endfacet
  facet normal -0 0 -1
    outer loop
      vertex -6.44504 29.0501 -2.8
      vertex -7.80194 25.8678 -2.8
      vertex -7.80194 30.1322 -2.8
    endloop
  endfacet
  facet normal 0 0 -1
    outer loop
      vertex -4.75302 23.4363 -2.8
      vertex -1.80194 24.1322 -2.8
      vertex -4.75302 20.5637 -2.8
    endloop
  endfacet
  facet normal -0 0 -1
    outer loop
      vertex -1.80194 24.1322 -2.8
      vertex -4.75302 23.4363 -2.8
      vertex -4 25 -2.8
    endloop
  endfacet
  facet normal 0 0 -1
    outer loop
      vertex -6.44504 20.9499 -2.8
      vertex -4.75302 23.4363 -2.8
      vertex -4.75302 20.5637 -2.8
    endloop
  endfacet
  facet normal 0 0 -1
    outer loop
      vertex -6.44504 20.9499 -2.8
      vertex -6.44504 23.0501 -2.8
      vertex -4.75302 23.4363 -2.8
    endloop
  endfacet
  facet normal 0 0 -1
    outer loop
      vertex -7.80194 19.8678 -2.8
      vertex -6.44504 23.0501 -2.8
      vertex -6.44504 20.9499 -2.8
    endloop
  endfacet
  facet normal -0 0 -1
    outer loop
      vertex -6.44504 23.0501 -2.8
      vertex -7.80194 19.8678 -2.8
      vertex -7.80194 24.1322 -2.8
    endloop
  endfacet
  facet normal 0 0 -1
    outer loop
      vertex 1.24698 29.4363 -2.8
      vertex 4.19806 30.1322 -2.8
      vertex 1.24698 26.5637 -2.8
    endloop
  endfacet
  facet normal -0 0 -1
    outer loop
      vertex 4.19806 30.1322 -2.8
      vertex 1.24698 29.4363 -2.8
      vertex 2 31 -2.8
    endloop
  endfacet
  facet normal 0 0 -1
    outer loop
      vertex -0.445042 26.9499 -2.8
      vertex 1.24698 29.4363 -2.8
      vertex 1.24698 26.5637 -2.8
    endloop
  endfacet
  facet normal 0 0 -1
    outer loop
      vertex -0.445042 26.9499 -2.8
      vertex -0.445042 29.0501 -2.8
      vertex 1.24698 29.4363 -2.8
    endloop
  endfacet
  facet normal 0 0 -1
    outer loop
      vertex -1.80194 25.8678 -2.8
      vertex -0.445042 29.0501 -2.8
      vertex -0.445042 26.9499 -2.8
    endloop
  endfacet
  facet normal -0 0 -1
    outer loop
      vertex -0.445042 29.0501 -2.8
      vertex -1.80194 25.8678 -2.8
      vertex -1.80194 30.1322 -2.8
    endloop
  endfacet
  facet normal 0 0 -1
    outer loop
      vertex 1.24698 23.4363 -2.8
      vertex 4.19806 24.1322 -2.8
      vertex 1.24698 20.5637 -2.8
    endloop
  endfacet
  facet normal -0 0 -1
    outer loop
      vertex 4.19806 24.1322 -2.8
      vertex 1.24698 23.4363 -2.8
      vertex 2 25 -2.8
    endloop
  endfacet
  facet normal 0 0 -1
    outer loop
      vertex -0.445042 20.9499 -2.8
      vertex 1.24698 23.4363 -2.8
      vertex 1.24698 20.5637 -2.8
    endloop
  endfacet
  facet normal 0 0 -1
    outer loop
      vertex -0.445042 20.9499 -2.8
      vertex -0.445042 23.0501 -2.8
      vertex 1.24698 23.4363 -2.8
    endloop
  endfacet
  facet normal 0 0 -1
    outer loop
      vertex -1.80194 19.8678 -2.8
      vertex -0.445042 23.0501 -2.8
      vertex -0.445042 20.9499 -2.8
    endloop
  endfacet
  facet normal -0 0 -1
    outer loop
      vertex -0.445042 23.0501 -2.8
      vertex -1.80194 19.8678 -2.8
      vertex -1.80194 24.1322 -2.8
    endloop
  endfacet
  facet normal 0 0 -1
    outer loop
      vertex 7.24698 26.5637 -2.8
      vertex 8 31 -2.8
      vertex 8 25 -2.8
    endloop
  endfacet
  facet normal 0 0 -1
    outer loop
      vertex 7.24698 26.5637 -2.8
      vertex 7.24698 29.4363 -2.8
      vertex 8 31 -2.8
    endloop
  endfacet
  facet normal 0 0 -1
    outer loop
      vertex 5.55496 26.9499 -2.8
      vertex 7.24698 29.4363 -2.8
      vertex 7.24698 26.5637 -2.8
    endloop
  endfacet
  facet normal 0 0 -1
    outer loop
      vertex 5.55496 26.9499 -2.8
      vertex 5.55496 29.0501 -2.8
      vertex 7.24698 29.4363 -2.8
    endloop
  endfacet
  facet normal 0 0 -1
    outer loop
      vertex 4.19806 25.8678 -2.8
      vertex 5.55496 29.0501 -2.8
      vertex 5.55496 26.9499 -2.8
    endloop
  endfacet
  facet normal -0 0 -1
    outer loop
      vertex 5.55496 29.0501 -2.8
      vertex 4.19806 25.8678 -2.8
      vertex 4.19806 30.1322 -2.8
    endloop
  endfacet
  facet normal 0 0 -1
    outer loop
      vertex 7.24698 20.5637 -2.8
      vertex 8 25 -2.8
      vertex 8 19 -2.8
    endloop
  endfacet
  facet normal 0 0 -1
    outer loop
      vertex 7.24698 20.5637 -2.8
      vertex 7.24698 23.4363 -2.8
      vertex 8 25 -2.8
    endloop
  endfacet
  facet normal 0 0 -1
    outer loop
      vertex 5.55496 20.9499 -2.8
      vertex 7.24698 23.4363 -2.8
      vertex 7.24698 20.5637 -2.8
    endloop
  endfacet
  facet normal 0 0 -1
    outer loop
      vertex 5.55496 20.9499 -2.8
      vertex 5.55496 23.0501 -2.8
      vertex 7.24698 23.4363 -2.8
    endloop
  endfacet
  facet normal 0 0 -1
    outer loop
      vertex 4.19806 19.8678 -2.8
      vertex 5.55496 23.0501 -2.8
      vertex 5.55496 20.9499 -2.8
    endloop
  endfacet
  facet normal -0 0 -1
    outer loop
      vertex 5.55496 23.0501 -2.8
      vertex 4.19806 19.8678 -2.8
      vertex 4.19806 24.1322 -2.8
    endloop
  endfacet
  facet normal 0 0 -1
    outer loop
      vertex 7.24698 17.4363 -2.8
      vertex 26.88 13.2817 -2.8
      vertex 26.88 13.13 -2.8
    endloop
  endfacet
  facet normal 0 0 -1
    outer loop
      vertex 26.88 13.2817 -2.8
      vertex 8 25 -2.8
      vertex 26.88 36.7183 -2.8
    endloop
  endfacet
  facet normal 0 0 -1
    outer loop
      vertex 26.88 13.2817 -2.8
      vertex 8 19 -2.8
      vertex 8 25 -2.8
    endloop
  endfacet
  facet normal 0 0 -1
    outer loop
      vertex 26.88 13.2817 -2.8
      vertex 7.24698 17.4363 -2.8
      vertex 8 19 -2.8
    endloop
  endfacet
  facet normal 0 0 -1
    outer loop
      vertex 26.88 13.13 -2.8
      vertex 5.55496 17.0501 -2.8
      vertex 7.24698 17.4363 -2.8
    endloop
  endfacet
  facet normal 0 0 -1
    outer loop
      vertex 2 19 -2.8
      vertex 4.19806 19.8678 -2.8
      vertex 4.19806 18.1322 -2.8
    endloop
  endfacet
  facet normal 0 0 -1
    outer loop
      vertex 1.24698 20.5637 -2.8
      vertex 4.19806 19.8678 -2.8
      vertex 2 19 -2.8
    endloop
  endfacet
  facet normal 0 0 -1
    outer loop
      vertex 4.19806 24.1322 -2.8
      vertex 2 25 -2.8
      vertex 4.19806 25.8678 -2.8
    endloop
  endfacet
  facet normal 0 0 -1
    outer loop
      vertex 1.24698 26.5637 -2.8
      vertex 4.19806 25.8678 -2.8
      vertex 2 25 -2.8
    endloop
  endfacet
  facet normal 0 0 -1
    outer loop
      vertex 4.19806 19.8678 -2.8
      vertex 1.24698 20.5637 -2.8
      vertex 4.19806 24.1322 -2.8
    endloop
  endfacet
  facet normal 0 0 -1
    outer loop
      vertex 1.24698 17.4363 -2.8
      vertex 4.19806 18.1322 -2.8
      vertex 5.55496 17.0501 -2.8
    endloop
  endfacet
  facet normal -0 0 -1
    outer loop
      vertex 4.19806 18.1322 -2.8
      vertex 1.24698 17.4363 -2.8
      vertex 2 19 -2.8
    endloop
  endfacet
  facet normal 0 0 -1
    outer loop
      vertex -0.445042 17.0501 -2.8
      vertex 5.55496 17.0501 -2.8
      vertex 26.88 13.13 -2.8
    endloop
  endfacet
  facet normal 0 0 -1
    outer loop
      vertex 5.55496 17.0501 -2.8
      vertex -0.445042 17.0501 -2.8
      vertex 1.24698 17.4363 -2.8
    endloop
  endfacet
  facet normal 0 0 -1
    outer loop
      vertex -4 19 -2.8
      vertex -1.80194 19.8678 -2.8
      vertex -1.80194 18.1322 -2.8
    endloop
  endfacet
  facet normal 0 0 -1
    outer loop
      vertex -4.75302 20.5637 -2.8
      vertex -1.80194 19.8678 -2.8
      vertex -4 19 -2.8
    endloop
  endfacet
  facet normal 0 0 -1
    outer loop
      vertex -1.80194 24.1322 -2.8
      vertex -4 25 -2.8
      vertex -1.80194 25.8678 -2.8
    endloop
  endfacet
  facet normal 0 0 -1
    outer loop
      vertex -4.75302 26.5637 -2.8
      vertex -1.80194 25.8678 -2.8
      vertex -4 25 -2.8
    endloop
  endfacet
  facet normal 0 0 -1
    outer loop
      vertex -1.80194 19.8678 -2.8
      vertex -4.75302 20.5637 -2.8
      vertex -1.80194 24.1322 -2.8
    endloop
  endfacet
  facet normal 0 0 -1
    outer loop
      vertex -4.75302 17.4363 -2.8
      vertex -1.80194 18.1322 -2.8
      vertex -0.445042 17.0501 -2.8
    endloop
  endfacet
  facet normal -0 0 -1
    outer loop
      vertex -1.80194 18.1322 -2.8
      vertex -4.75302 17.4363 -2.8
      vertex -4 19 -2.8
    endloop
  endfacet
  facet normal 0 0 -1
    outer loop
      vertex -26.88 13.13 -2.8
      vertex -0.445042 17.0501 -2.8
      vertex 26.88 13.13 -2.8
    endloop
  endfacet
  facet normal 0 0 -1
    outer loop
      vertex -0.445042 17.0501 -2.8
      vertex -6.44504 17.0501 -2.8
      vertex -4.75302 17.4363 -2.8
    endloop
  endfacet
  facet normal 0 0 -1
    outer loop
      vertex -26.88 13.2817 -2.8
      vertex -7.80194 19.8678 -2.8
      vertex -7.80194 18.1322 -2.8
    endloop
  endfacet
  facet normal -0 0 -1
    outer loop
      vertex -7.80194 19.8678 -2.8
      vertex -26.88 13.2817 -2.8
      vertex -7.80194 24.1322 -2.8
    endloop
  endfacet
  facet normal -0 0 -1
    outer loop
      vertex -7.80194 24.1322 -2.8
      vertex -26.88 13.2817 -2.8
      vertex -7.80194 25.8678 -2.8
    endloop
  endfacet
  facet normal 0 0 -1
    outer loop
      vertex -26.88 36.7183 -2.8
      vertex -7.80194 25.8678 -2.8
      vertex -26.88 13.2817 -2.8
    endloop
  endfacet
  facet normal 0 0 -1
    outer loop
      vertex -26.88 13.2817 -2.8
      vertex -7.80194 18.1322 -2.8
      vertex -26.88 13.13 -2.8
    endloop
  endfacet
  facet normal -0 0 -1
    outer loop
      vertex -6.44504 17.0501 -2.8
      vertex -26.88 13.13 -2.8
      vertex -7.80194 18.1322 -2.8
    endloop
  endfacet
  facet normal -0 0 -1
    outer loop
      vertex -0.445042 17.0501 -2.8
      vertex -26.88 13.13 -2.8
      vertex -6.44504 17.0501 -2.8
    endloop
  endfacet
  facet normal 0 0 -1
    outer loop
      vertex 26.88 13.2817 -2.8
      vertex 28.88 15.13 -2.8
      vertex 28.127 13.5663 -2.8
    endloop
  endfacet
  facet normal -0 0 -1
    outer loop
      vertex 28.88 15.13 -2.8
      vertex 26.88 13.2817 -2.8
      vertex 28.88 34.87 -2.8
    endloop
  endfacet
  facet normal 0 0 -1
    outer loop
      vertex 26.88 36.7183 -2.8
      vertex 28.88 34.87 -2.8
      vertex 26.88 13.2817 -2.8
    endloop
  endfacet
  facet normal 0 0 -1
    outer loop
      vertex 28.88 34.87 -2.8
      vertex 26.88 36.7183 -2.8
      vertex 28.127 36.4337 -2.8
    endloop
  endfacet
  facet normal 0 0 -1
    outer loop
      vertex 8 31 -2.8
      vertex 26.88 36.7183 -2.8
      vertex 8 25 -2.8
    endloop
  endfacet
  facet normal 0 0 -1
    outer loop
      vertex 7.24698 32.5637 -2.8
      vertex 26.88 36.7183 -2.8
      vertex 8 31 -2.8
    endloop
  endfacet
  facet normal -0 0 -1
    outer loop
      vertex 26.88 36.7183 -2.8
      vertex 7.24698 32.5637 -2.8
      vertex 26.88 36.87 -2.8
    endloop
  endfacet
  facet normal 0 0 -1
    outer loop
      vertex 5.55496 32.9499 -2.8
      vertex 26.88 36.87 -2.8
      vertex 7.24698 32.5637 -2.8
    endloop
  endfacet
  facet normal 0 0 -1
    outer loop
      vertex 4.19806 25.8678 -2.8
      vertex 1.24698 26.5637 -2.8
      vertex 4.19806 30.1322 -2.8
    endloop
  endfacet
  facet normal 0 0 -1
    outer loop
      vertex 4.19806 30.1322 -2.8
      vertex 2 31 -2.8
      vertex 4.19806 31.8678 -2.8
    endloop
  endfacet
  facet normal 0 0 -1
    outer loop
      vertex 1.24698 32.5637 -2.8
      vertex 4.19806 31.8678 -2.8
      vertex 2 31 -2.8
    endloop
  endfacet
  facet normal 0 0 -1
    outer loop
      vertex 4.19806 31.8678 -2.8
      vertex 1.24698 32.5637 -2.8
      vertex 5.55496 32.9499 -2.8
    endloop
  endfacet
  facet normal 0 0 -1
    outer loop
      vertex -0.445042 32.9499 -2.8
      vertex 5.55496 32.9499 -2.8
      vertex 1.24698 32.5637 -2.8
    endloop
  endfacet
  facet normal 0 0 -1
    outer loop
      vertex 5.55496 32.9499 -2.8
      vertex -0.445042 32.9499 -2.8
      vertex 26.88 36.87 -2.8
    endloop
  endfacet
  facet normal 0 0 -1
    outer loop
      vertex -1.80194 25.8678 -2.8
      vertex -4.75302 26.5637 -2.8
      vertex -1.80194 30.1322 -2.8
    endloop
  endfacet
  facet normal 0 0 -1
    outer loop
      vertex -1.80194 30.1322 -2.8
      vertex -4 31 -2.8
      vertex -1.80194 31.8678 -2.8
    endloop
  endfacet
  facet normal 0 0 -1
    outer loop
      vertex -4.75302 32.5637 -2.8
      vertex -1.80194 31.8678 -2.8
      vertex -4 31 -2.8
    endloop
  endfacet
  facet normal 0 0 -1
    outer loop
      vertex -1.80194 31.8678 -2.8
      vertex -4.75302 32.5637 -2.8
      vertex -0.445042 32.9499 -2.8
    endloop
  endfacet
  facet normal 0 0 -1
    outer loop
      vertex -6.44504 32.9499 -2.8
      vertex -0.445042 32.9499 -2.8
      vertex -4.75302 32.5637 -2.8
    endloop
  endfacet
  facet normal 0 0 -1
    outer loop
      vertex -26.88 36.87 -2.8
      vertex -0.445042 32.9499 -2.8
      vertex -6.44504 32.9499 -2.8
    endloop
  endfacet
  facet normal 0 0 -1
    outer loop
      vertex -7.80194 25.8678 -2.8
      vertex -26.88 36.7183 -2.8
      vertex -7.80194 30.1322 -2.8
    endloop
  endfacet
  facet normal 0 0 -1
    outer loop
      vertex -7.80194 30.1322 -2.8
      vertex -26.88 36.7183 -2.8
      vertex -7.80194 31.8678 -2.8
    endloop
  endfacet
  facet normal 0 0 -1
    outer loop
      vertex -26.88 36.87 -2.8
      vertex -7.80194 31.8678 -2.8
      vertex -26.88 36.7183 -2.8
    endloop
  endfacet
  facet normal 0 0 -1
    outer loop
      vertex -7.80194 31.8678 -2.8
      vertex -26.88 36.87 -2.8
      vertex -6.44504 32.9499 -2.8
    endloop
  endfacet
  facet normal 0 0 -1
    outer loop
      vertex -0.445042 32.9499 -2.8
      vertex -26.88 36.87 -2.8
      vertex 26.88 36.87 -2.8
    endloop
  endfacet
  facet normal 0.22252 -0.974928 0
    outer loop
      vertex -27.325 13.1801 -2.8
      vertex -26.88 13.2817 -0.8
      vertex -27.325 13.1801 -0.8
    endloop
  endfacet
  facet normal 0.22252 -0.974928 0
    outer loop
      vertex -26.88 13.2817 -0.8
      vertex -27.325 13.1801 -2.8
      vertex -26.88 13.2817 -2.8
    endloop
  endfacet
  facet normal -1 0 0
    outer loop
      vertex -28.6819 34.87 -2.8
      vertex -28.6819 35.7378 -0.8
      vertex -28.6819 35.7378 -2.8
    endloop
  endfacet
  facet normal -1 -0 0
    outer loop
      vertex -28.6819 35.7378 -0.8
      vertex -28.6819 34.87 -2.8
      vertex -28.6819 34.87 -0.8
    endloop
  endfacet
  facet normal 0.22252 0.974928 -0
    outer loop
      vertex -26.88 36.7183 -2.8
      vertex -27.325 36.8199 -0.8
      vertex -26.88 36.7183 -0.8
    endloop
  endfacet
  facet normal 0.22252 0.974928 0
    outer loop
      vertex -27.325 36.8199 -0.8
      vertex -26.88 36.7183 -2.8
      vertex -27.325 36.8199 -2.8
    endloop
  endfacet
  facet normal -0.62349 0.781831 0
    outer loop
      vertex -27.325 36.8199 -2.8
      vertex -28.6819 35.7378 -0.8
      vertex -27.325 36.8199 -0.8
    endloop
  endfacet
  facet normal -0.62349 0.781831 0
    outer loop
      vertex -28.6819 35.7378 -0.8
      vertex -27.325 36.8199 -2.8
      vertex -28.6819 35.7378 -2.8
    endloop
  endfacet
  facet normal 0.900969 -0.433883 0
    outer loop
      vertex 28.127 13.5663 -0.8
      vertex 28.88 15.13 -2.8
      vertex 28.88 15.13 -0.8
    endloop
  endfacet
  facet normal 0.900969 -0.433883 0
    outer loop
      vertex 28.88 15.13 -2.8
      vertex 28.127 13.5663 -0.8
      vertex 28.127 13.5663 -2.8
    endloop
  endfacet
  facet normal 0.222521 -0.974928 0
    outer loop
      vertex 26.88 13.2817 -2.8
      vertex 28.127 13.5663 -0.8
      vertex 26.88 13.2817 -0.8
    endloop
  endfacet
  facet normal 0.222521 -0.974928 0
    outer loop
      vertex 28.127 13.5663 -0.8
      vertex 26.88 13.2817 -2.8
      vertex 28.127 13.5663 -2.8
    endloop
  endfacet
  facet normal 0.900969 0.433883 0
    outer loop
      vertex 28.88 34.87 -0.8
      vertex 28.127 36.4337 -2.8
      vertex 28.127 36.4337 -0.8
    endloop
  endfacet
  facet normal 0.900969 0.433883 0
    outer loop
      vertex 28.127 36.4337 -2.8
      vertex 28.88 34.87 -0.8
      vertex 28.88 34.87 -2.8
    endloop
  endfacet
  facet normal 0.22252 0.974928 -0
    outer loop
      vertex 28.127 36.4337 -2.8
      vertex 26.88 36.7183 -0.8
      vertex 28.127 36.4337 -0.8
    endloop
  endfacet
  facet normal 0.22252 0.974928 0
    outer loop
      vertex 26.88 36.7183 -0.8
      vertex 28.127 36.4337 -2.8
      vertex 26.88 36.7183 -2.8
    endloop
  endfacet
  facet normal -1 0 0
    outer loop
      vertex -26.88 13.13 -2.8
      vertex -26.88 13.2817 -0.8
      vertex -26.88 13.2817 -2.8
    endloop
  endfacet
  facet normal -1 -0 0
    outer loop
      vertex -26.88 13.2817 -0.8
      vertex -26.88 13.13 -2.8
      vertex -26.88 13.13 -0.8
    endloop
  endfacet
  facet normal -1 0 0
    outer loop
      vertex -26.88 36.7183 -2.8
      vertex -26.88 36.87 -0.8
      vertex -26.88 36.87 -2.8
    endloop
  endfacet
  facet normal -1 -0 0
    outer loop
      vertex -26.88 36.87 -0.8
      vertex -26.88 36.7183 -2.8
      vertex -26.88 36.7183 -0.8
    endloop
  endfacet
  facet normal 1 -0 0
    outer loop
      vertex 26.88 13.13 -0.8
      vertex 26.88 13.2817 -2.8
      vertex 26.88 13.2817 -0.8
    endloop
  endfacet
  facet normal 1 0 0
    outer loop
      vertex 26.88 13.2817 -2.8
      vertex 26.88 13.13 -0.8
      vertex 26.88 13.13 -2.8
    endloop
  endfacet
  facet normal 1 -0 0
    outer loop
      vertex 26.88 36.7183 -0.8
      vertex 26.88 36.87 -2.8
      vertex 26.88 36.87 -0.8
    endloop
  endfacet
  facet normal 1 0 0
    outer loop
      vertex 26.88 36.87 -2.8
      vertex 26.88 36.7183 -0.8
      vertex 26.88 36.7183 -2.8
    endloop
  endfacet
  facet normal 0 1 -0
    outer loop
      vertex 26.88 36.87 -2.8
      vertex -26.88 36.87 -0.8
      vertex 26.88 36.87 -0.8
    endloop
  endfacet
  facet normal 0 1 0
    outer loop
      vertex -26.88 36.87 -0.8
      vertex 26.88 36.87 -2.8
      vertex -26.88 36.87 -2.8
    endloop
  endfacet
  facet normal 0 -1 0
    outer loop
      vertex -26.88 13.13 -2.8
      vertex 0 13.13 -0.8
      vertex -26.88 13.13 -0.8
    endloop
  endfacet
  facet normal 0 -1 0
    outer loop
      vertex 26.88 13.13 -2.8
      vertex 0 13.13 -0.8
      vertex -26.88 13.13 -2.8
    endloop
  endfacet
  facet normal 0 -1 0
    outer loop
      vertex 0 13.13 -0.8
      vertex 26.88 13.13 -2.8
      vertex 6 13.13 -0.8
    endloop
  endfacet
  facet normal 0 -1 0
    outer loop
      vertex 6 13.13 -0.8
      vertex 26.88 13.13 -2.8
      vertex 26.88 13.13 -0.8
    endloop
  endfacet
  facet normal 0 -1 0
    outer loop
      vertex 0 13.13 -0.8
      vertex 6 13.13 1.2
      vertex 0 13.13 1.2
    endloop
  endfacet
  facet normal 0 -1 -0
    outer loop
      vertex 6 13.13 1.2
      vertex 0 13.13 -0.8
      vertex 6 13.13 -0.8
    endloop
  endfacet
  facet normal -1 0 0
    outer loop
      vertex -28.88 15.13 -2.8
      vertex -28.88 34.87 -0.8
      vertex -28.88 34.87 -2.8
    endloop
  endfacet
  facet normal -1 -0 0
    outer loop
      vertex -28.88 34.87 -0.8
      vertex -28.88 15.13 -2.8
      vertex -28.88 15.13 -0.8
    endloop
  endfacet
  facet normal 1 -0 0
    outer loop
      vertex 28.88 15.13 -0.8
      vertex 28.88 34.87 -2.8
      vertex 28.88 34.87 -0.8
    endloop
  endfacet
  facet normal 1 0 0
    outer loop
      vertex 28.88 34.87 -2.8
      vertex 28.88 15.13 -0.8
      vertex 28.88 15.13 -2.8
    endloop
  endfacet
  facet normal 0 -1 0
    outer loop
      vertex -28.88 15.13 -2.8
      vertex -28.6819 15.13 -0.8
      vertex -28.88 15.13 -0.8
    endloop
  endfacet
  facet normal 0 -1 -0
    outer loop
      vertex -28.6819 15.13 -0.8
      vertex -28.88 15.13 -2.8
      vertex -28.6819 15.13 -2.8
    endloop
  endfacet
  facet normal 0 1 -0
    outer loop
      vertex -28.6819 34.87 -2.8
      vertex -28.88 34.87 -0.8
      vertex -28.6819 34.87 -0.8
    endloop
  endfacet
  facet normal 0 1 0
    outer loop
      vertex -28.88 34.87 -0.8
      vertex -28.6819 34.87 -2.8
      vertex -28.88 34.87 -2.8
    endloop
  endfacet
  facet normal -0.900969 -0.433884 0
    outer loop
      vertex 2 25 -2.8
      vertex 1.24698 26.5637 -2.1
      vertex 1.24698 26.5637 -2.8
    endloop
  endfacet
  facet normal -0.900969 -0.433884 0
    outer loop
      vertex 1.24698 26.5637 -2.1
      vertex 2 25 -2.8
      vertex 2 25 -2.1
    endloop
  endfacet
  facet normal 1 -0 0
    outer loop
      vertex -1.80194 24.1322 -2.1
      vertex -1.80194 25.8678 -2.8
      vertex -1.80194 25.8678 -2.1
    endloop
  endfacet
  facet normal 1 0 0
    outer loop
      vertex -1.80194 25.8678 -2.8
      vertex -1.80194 24.1322 -2.1
      vertex -1.80194 24.1322 -2.8
    endloop
  endfacet
  facet normal -0.222521 -0.974928 0
    outer loop
      vertex -0.445042 26.9499 -2.8
      vertex 1.24698 26.5637 -2.1
      vertex -0.445042 26.9499 -2.1
    endloop
  endfacet
  facet normal -0.222521 -0.974928 -0
    outer loop
      vertex 1.24698 26.5637 -2.1
      vertex -0.445042 26.9499 -2.8
      vertex 1.24698 26.5637 -2.8
    endloop
  endfacet
  facet normal 0.62349 -0.781831 0
    outer loop
      vertex -1.80194 25.8678 -2.8
      vertex -0.445042 26.9499 -2.1
      vertex -1.80194 25.8678 -2.1
    endloop
  endfacet
  facet normal 0.62349 -0.781831 0
    outer loop
      vertex -0.445042 26.9499 -2.1
      vertex -1.80194 25.8678 -2.8
      vertex -0.445042 26.9499 -2.8
    endloop
  endfacet
  facet normal -0.900969 0.433884 0
    outer loop
      vertex 1.24698 23.4363 -2.8
      vertex 2 25 -2.1
      vertex 2 25 -2.8
    endloop
  endfacet
  facet normal -0.900969 0.433884 0
    outer loop
      vertex 2 25 -2.1
      vertex 1.24698 23.4363 -2.8
      vertex 1.24698 23.4363 -2.1
    endloop
  endfacet
  facet normal -0.222521 0.974928 0
    outer loop
      vertex 1.24698 23.4363 -2.8
      vertex -0.445042 23.0501 -2.1
      vertex 1.24698 23.4363 -2.1
    endloop
  endfacet
  facet normal -0.222521 0.974928 0
    outer loop
      vertex -0.445042 23.0501 -2.1
      vertex 1.24698 23.4363 -2.8
      vertex -0.445042 23.0501 -2.8
    endloop
  endfacet
  facet normal 0.62349 0.781831 -0
    outer loop
      vertex -0.445042 23.0501 -2.8
      vertex -1.80194 24.1322 -2.1
      vertex -0.445042 23.0501 -2.1
    endloop
  endfacet
  facet normal 0.62349 0.781831 0
    outer loop
      vertex -1.80194 24.1322 -2.1
      vertex -0.445042 23.0501 -2.8
      vertex -1.80194 24.1322 -2.8
    endloop
  endfacet
  facet normal -0.900969 -0.433884 0
    outer loop
      vertex 2 31 -2.8
      vertex 1.24698 32.5637 -2.1
      vertex 1.24698 32.5637 -2.8
    endloop
  endfacet
  facet normal -0.900969 -0.433884 0
    outer loop
      vertex 1.24698 32.5637 -2.1
      vertex 2 31 -2.8
      vertex 2 31 -2.1
    endloop
  endfacet
  facet normal 1 -0 0
    outer loop
      vertex -1.80194 30.1322 -2.1
      vertex -1.80194 31.8678 -2.8
      vertex -1.80194 31.8678 -2.1
    endloop
  endfacet
  facet normal 1 0 0
    outer loop
      vertex -1.80194 31.8678 -2.8
      vertex -1.80194 30.1322 -2.1
      vertex -1.80194 30.1322 -2.8
    endloop
  endfacet
  facet normal 0.62349 -0.781831 0
    outer loop
      vertex -1.80194 31.8678 -2.8
      vertex -0.445042 32.9499 -2.1
      vertex -1.80194 31.8678 -2.1
    endloop
  endfacet
  facet normal 0.62349 -0.781831 0
    outer loop
      vertex -0.445042 32.9499 -2.1
      vertex -1.80194 31.8678 -2.8
      vertex -0.445042 32.9499 -2.8
    endloop
  endfacet
  facet normal -0.222521 -0.974928 0
    outer loop
      vertex -0.445042 32.9499 -2.8
      vertex 1.24698 32.5637 -2.1
      vertex -0.445042 32.9499 -2.1
    endloop
  endfacet
  facet normal -0.222521 -0.974928 -0
    outer loop
      vertex 1.24698 32.5637 -2.1
      vertex -0.445042 32.9499 -2.8
      vertex 1.24698 32.5637 -2.8
    endloop
  endfacet
  facet normal -0.900969 0.433884 0
    outer loop
      vertex 1.24698 29.4363 -2.8
      vertex 2 31 -2.1
      vertex 2 31 -2.8
    endloop
  endfacet
  facet normal -0.900969 0.433884 0
    outer loop
      vertex 2 31 -2.1
      vertex 1.24698 29.4363 -2.8
      vertex 1.24698 29.4363 -2.1
    endloop
  endfacet
  facet normal -0.222521 0.974928 0
    outer loop
      vertex 1.24698 29.4363 -2.8
      vertex -0.445042 29.0501 -2.1
      vertex 1.24698 29.4363 -2.1
    endloop
  endfacet
  facet normal -0.222521 0.974928 0
    outer loop
      vertex -0.445042 29.0501 -2.1
      vertex 1.24698 29.4363 -2.8
      vertex -0.445042 29.0501 -2.8
    endloop
  endfacet
  facet normal 0.62349 0.781831 -0
    outer loop
      vertex -0.445042 29.0501 -2.8
      vertex -1.80194 30.1322 -2.1
      vertex -0.445042 29.0501 -2.1
    endloop
  endfacet
  facet normal 0.62349 0.781831 0
    outer loop
      vertex -1.80194 30.1322 -2.1
      vertex -0.445042 29.0501 -2.8
      vertex -1.80194 30.1322 -2.8
    endloop
  endfacet
  facet normal -0.900969 -0.433884 0
    outer loop
      vertex 2 19 -2.8
      vertex 1.24698 20.5637 -2.1
      vertex 1.24698 20.5637 -2.8
    endloop
  endfacet
  facet normal -0.900969 -0.433884 0
    outer loop
      vertex 1.24698 20.5637 -2.1
      vertex 2 19 -2.8
      vertex 2 19 -2.1
    endloop
  endfacet
  facet normal 1 -0 0
    outer loop
      vertex -1.80194 18.1322 -2.1
      vertex -1.80194 19.8678 -2.8
      vertex -1.80194 19.8678 -2.1
    endloop
  endfacet
  facet normal 1 0 0
    outer loop
      vertex -1.80194 19.8678 -2.8
      vertex -1.80194 18.1322 -2.1
      vertex -1.80194 18.1322 -2.8
    endloop
  endfacet
  facet normal 0.62349 0.781831 -0
    outer loop
      vertex -0.445042 17.0501 -2.8
      vertex -1.80194 18.1322 -2.1
      vertex -0.445042 17.0501 -2.1
    endloop
  endfacet
  facet normal 0.62349 0.781831 0
    outer loop
      vertex -1.80194 18.1322 -2.1
      vertex -0.445042 17.0501 -2.8
      vertex -1.80194 18.1322 -2.8
    endloop
  endfacet
  facet normal 0.62349 -0.781831 0
    outer loop
      vertex -1.80194 19.8678 -2.8
      vertex -0.445042 20.9499 -2.1
      vertex -1.80194 19.8678 -2.1
    endloop
  endfacet
  facet normal 0.62349 -0.781831 0
    outer loop
      vertex -0.445042 20.9499 -2.1
      vertex -1.80194 19.8678 -2.8
      vertex -0.445042 20.9499 -2.8
    endloop
  endfacet
  facet normal -0.222521 -0.974928 0
    outer loop
      vertex -0.445042 20.9499 -2.8
      vertex 1.24698 20.5637 -2.1
      vertex -0.445042 20.9499 -2.1
    endloop
  endfacet
  facet normal -0.222521 -0.974928 -0
    outer loop
      vertex 1.24698 20.5637 -2.1
      vertex -0.445042 20.9499 -2.8
      vertex 1.24698 20.5637 -2.8
    endloop
  endfacet
  facet normal -0.900969 0.433884 0
    outer loop
      vertex 1.24698 17.4363 -2.8
      vertex 2 19 -2.1
      vertex 2 19 -2.8
    endloop
  endfacet
  facet normal -0.900969 0.433884 0
    outer loop
      vertex 2 19 -2.1
      vertex 1.24698 17.4363 -2.8
      vertex 1.24698 17.4363 -2.1
    endloop
  endfacet
  facet normal -0.222521 0.974928 0
    outer loop
      vertex 1.24698 17.4363 -2.8
      vertex -0.445042 17.0501 -2.1
      vertex 1.24698 17.4363 -2.1
    endloop
  endfacet
  facet normal -0.222521 0.974928 0
    outer loop
      vertex -0.445042 17.0501 -2.1
      vertex 1.24698 17.4363 -2.8
      vertex -0.445042 17.0501 -2.8
    endloop
  endfacet
  facet normal -0.900969 -0.433884 0
    outer loop
      vertex -4 25 -2.8
      vertex -4.75302 26.5637 -2.1
      vertex -4.75302 26.5637 -2.8
    endloop
  endfacet
  facet normal -0.900969 -0.433884 0
    outer loop
      vertex -4.75302 26.5637 -2.1
      vertex -4 25 -2.8
      vertex -4 25 -2.1
    endloop
  endfacet
  facet normal 1 -0 0
    outer loop
      vertex -7.80194 24.1322 -2.1
      vertex -7.80194 25.8678 -2.8
      vertex -7.80194 25.8678 -2.1
    endloop
  endfacet
  facet normal 1 0 0
    outer loop
      vertex -7.80194 25.8678 -2.8
      vertex -7.80194 24.1322 -2.1
      vertex -7.80194 24.1322 -2.8
    endloop
  endfacet
  facet normal -0.222521 -0.974928 0
    outer loop
      vertex -6.44504 26.9499 -2.8
      vertex -4.75302 26.5637 -2.1
      vertex -6.44504 26.9499 -2.1
    endloop
  endfacet
  facet normal -0.222521 -0.974928 -0
    outer loop
      vertex -4.75302 26.5637 -2.1
      vertex -6.44504 26.9499 -2.8
      vertex -4.75302 26.5637 -2.8
    endloop
  endfacet
  facet normal 0.62349 0.781831 -0
    outer loop
      vertex -6.44504 23.0501 -2.8
      vertex -7.80194 24.1322 -2.1
      vertex -6.44504 23.0501 -2.1
    endloop
  endfacet
  facet normal 0.62349 0.781831 0
    outer loop
      vertex -7.80194 24.1322 -2.1
      vertex -6.44504 23.0501 -2.8
      vertex -7.80194 24.1322 -2.8
    endloop
  endfacet
  facet normal 0.62349 -0.781831 0
    outer loop
      vertex -7.80194 25.8678 -2.8
      vertex -6.44504 26.9499 -2.1
      vertex -7.80194 25.8678 -2.1
    endloop
  endfacet
  facet normal 0.62349 -0.781831 0
    outer loop
      vertex -6.44504 26.9499 -2.1
      vertex -7.80194 25.8678 -2.8
      vertex -6.44504 26.9499 -2.8
    endloop
  endfacet
  facet normal -0.222521 0.974928 0
    outer loop
      vertex -4.75302 23.4363 -2.8
      vertex -6.44504 23.0501 -2.1
      vertex -4.75302 23.4363 -2.1
    endloop
  endfacet
  facet normal -0.222521 0.974928 0
    outer loop
      vertex -6.44504 23.0501 -2.1
      vertex -4.75302 23.4363 -2.8
      vertex -6.44504 23.0501 -2.8
    endloop
  endfacet
  facet normal -0.900969 0.433884 0
    outer loop
      vertex -4.75302 23.4363 -2.8
      vertex -4 25 -2.1
      vertex -4 25 -2.8
    endloop
  endfacet
  facet normal -0.900969 0.433884 0
    outer loop
      vertex -4 25 -2.1
      vertex -4.75302 23.4363 -2.8
      vertex -4.75302 23.4363 -2.1
    endloop
  endfacet
  facet normal -0.900969 -0.433884 0
    outer loop
      vertex 8 25 -2.8
      vertex 7.24698 26.5637 -2.1
      vertex 7.24698 26.5637 -2.8
    endloop
  endfacet
  facet normal -0.900969 -0.433884 0
    outer loop
      vertex 7.24698 26.5637 -2.1
      vertex 8 25 -2.8
      vertex 8 25 -2.1
    endloop
  endfacet
  facet normal 1 -0 0
    outer loop
      vertex 4.19806 24.1322 -2.1
      vertex 4.19806 25.8678 -2.8
      vertex 4.19806 25.8678 -2.1
    endloop
  endfacet
  facet normal 1 0 0
    outer loop
      vertex 4.19806 25.8678 -2.8
      vertex 4.19806 24.1322 -2.1
      vertex 4.19806 24.1322 -2.8
    endloop
  endfacet
  facet normal -0.222521 -0.974928 0
    outer loop
      vertex 5.55496 26.9499 -2.8
      vertex 7.24698 26.5637 -2.1
      vertex 5.55496 26.9499 -2.1
    endloop
  endfacet
  facet normal -0.222521 -0.974928 -0
    outer loop
      vertex 7.24698 26.5637 -2.1
      vertex 5.55496 26.9499 -2.8
      vertex 7.24698 26.5637 -2.8
    endloop
  endfacet
  facet normal 0.62349 -0.781831 0
    outer loop
      vertex 4.19806 25.8678 -2.8
      vertex 5.55496 26.9499 -2.1
      vertex 4.19806 25.8678 -2.1
    endloop
  endfacet
  facet normal 0.62349 -0.781831 0
    outer loop
      vertex 5.55496 26.9499 -2.1
      vertex 4.19806 25.8678 -2.8
      vertex 5.55496 26.9499 -2.8
    endloop
  endfacet
  facet normal -0.222521 0.974928 0
    outer loop
      vertex 7.24698 23.4363 -2.8
      vertex 5.55496 23.0501 -2.1
      vertex 7.24698 23.4363 -2.1
    endloop
  endfacet
  facet normal -0.222521 0.974928 0
    outer loop
      vertex 5.55496 23.0501 -2.1
      vertex 7.24698 23.4363 -2.8
      vertex 5.55496 23.0501 -2.8
    endloop
  endfacet
  facet normal 0.62349 0.781831 -0
    outer loop
      vertex 5.55496 23.0501 -2.8
      vertex 4.19806 24.1322 -2.1
      vertex 5.55496 23.0501 -2.1
    endloop
  endfacet
  facet normal 0.62349 0.781831 0
    outer loop
      vertex 4.19806 24.1322 -2.1
      vertex 5.55496 23.0501 -2.8
      vertex 4.19806 24.1322 -2.8
    endloop
  endfacet
  facet normal -0.900969 0.433884 0
    outer loop
      vertex 7.24698 23.4363 -2.8
      vertex 8 25 -2.1
      vertex 8 25 -2.8
    endloop
  endfacet
  facet normal -0.900969 0.433884 0
    outer loop
      vertex 8 25 -2.1
      vertex 7.24698 23.4363 -2.8
      vertex 7.24698 23.4363 -2.1
    endloop
  endfacet
  facet normal -0.900969 -0.433884 0
    outer loop
      vertex 8 31 -2.8
      vertex 7.24698 32.5637 -2.1
      vertex 7.24698 32.5637 -2.8
    endloop
  endfacet
  facet normal -0.900969 -0.433884 0
    outer loop
      vertex 7.24698 32.5637 -2.1
      vertex 8 31 -2.8
      vertex 8 31 -2.1
    endloop
  endfacet
  facet normal 1 -0 0
    outer loop
      vertex 4.19806 30.1322 -2.1
      vertex 4.19806 31.8678 -2.8
      vertex 4.19806 31.8678 -2.1
    endloop
  endfacet
  facet normal 1 0 0
    outer loop
      vertex 4.19806 31.8678 -2.8
      vertex 4.19806 30.1322 -2.1
      vertex 4.19806 30.1322 -2.8
    endloop
  endfacet
  facet normal -0.222521 -0.974928 0
    outer loop
      vertex 5.55496 32.9499 -2.8
      vertex 7.24698 32.5637 -2.1
      vertex 5.55496 32.9499 -2.1
    endloop
  endfacet
  facet normal -0.222521 -0.974928 -0
    outer loop
      vertex 7.24698 32.5637 -2.1
      vertex 5.55496 32.9499 -2.8
      vertex 7.24698 32.5637 -2.8
    endloop
  endfacet
  facet normal 0.62349 -0.781831 0
    outer loop
      vertex 4.19806 31.8678 -2.8
      vertex 5.55496 32.9499 -2.1
      vertex 4.19806 31.8678 -2.1
    endloop
  endfacet
  facet normal 0.62349 -0.781831 0
    outer loop
      vertex 5.55496 32.9499 -2.1
      vertex 4.19806 31.8678 -2.8
      vertex 5.55496 32.9499 -2.8
    endloop
  endfacet
  facet normal -0.900969 0.433884 0
    outer loop
      vertex 7.24698 29.4363 -2.8
      vertex 8 31 -2.1
      vertex 8 31 -2.8
    endloop
  endfacet
  facet normal -0.900969 0.433884 0
    outer loop
      vertex 8 31 -2.1
      vertex 7.24698 29.4363 -2.8
      vertex 7.24698 29.4363 -2.1
    endloop
  endfacet
  facet normal -0.222521 0.974928 0
    outer loop
      vertex 7.24698 29.4363 -2.8
      vertex 5.55496 29.0501 -2.1
      vertex 7.24698 29.4363 -2.1
    endloop
  endfacet
  facet normal -0.222521 0.974928 0
    outer loop
      vertex 5.55496 29.0501 -2.1
      vertex 7.24698 29.4363 -2.8
      vertex 5.55496 29.0501 -2.8
    endloop
  endfacet
  facet normal 0.62349 0.781831 -0
    outer loop
      vertex 5.55496 29.0501 -2.8
      vertex 4.19806 30.1322 -2.1
      vertex 5.55496 29.0501 -2.1
    endloop
  endfacet
  facet normal 0.62349 0.781831 0
    outer loop
      vertex 4.19806 30.1322 -2.1
      vertex 5.55496 29.0501 -2.8
      vertex 4.19806 30.1322 -2.8
    endloop
  endfacet
  facet normal -0.900969 -0.433884 0
    outer loop
      vertex -4 19 -2.8
      vertex -4.75302 20.5637 -2.1
      vertex -4.75302 20.5637 -2.8
    endloop
  endfacet
  facet normal -0.900969 -0.433884 0
    outer loop
      vertex -4.75302 20.5637 -2.1
      vertex -4 19 -2.8
      vertex -4 19 -2.1
    endloop
  endfacet
  facet normal 1 -0 0
    outer loop
      vertex -7.80194 18.1322 -2.1
      vertex -7.80194 19.8678 -2.8
      vertex -7.80194 19.8678 -2.1
    endloop
  endfacet
  facet normal 1 0 0
    outer loop
      vertex -7.80194 19.8678 -2.8
      vertex -7.80194 18.1322 -2.1
      vertex -7.80194 18.1322 -2.8
    endloop
  endfacet
  facet normal -0.222521 -0.974928 0
    outer loop
      vertex -6.44504 20.9499 -2.8
      vertex -4.75302 20.5637 -2.1
      vertex -6.44504 20.9499 -2.1
    endloop
  endfacet
  facet normal -0.222521 -0.974928 -0
    outer loop
      vertex -4.75302 20.5637 -2.1
      vertex -6.44504 20.9499 -2.8
      vertex -4.75302 20.5637 -2.8
    endloop
  endfacet
  facet normal 0.62349 -0.781831 0
    outer loop
      vertex -7.80194 19.8678 -2.8
      vertex -6.44504 20.9499 -2.1
      vertex -7.80194 19.8678 -2.1
    endloop
  endfacet
  facet normal 0.62349 -0.781831 0
    outer loop
      vertex -6.44504 20.9499 -2.1
      vertex -7.80194 19.8678 -2.8
      vertex -6.44504 20.9499 -2.8
    endloop
  endfacet
  facet normal -0.900969 0.433884 0
    outer loop
      vertex -4.75302 17.4363 -2.8
      vertex -4 19 -2.1
      vertex -4 19 -2.8
    endloop
  endfacet
  facet normal -0.900969 0.433884 0
    outer loop
      vertex -4 19 -2.1
      vertex -4.75302 17.4363 -2.8
      vertex -4.75302 17.4363 -2.1
    endloop
  endfacet
  facet normal -0.222521 0.974928 0
    outer loop
      vertex -4.75302 17.4363 -2.8
      vertex -6.44504 17.0501 -2.1
      vertex -4.75302 17.4363 -2.1
    endloop
  endfacet
  facet normal -0.222521 0.974928 0
    outer loop
      vertex -6.44504 17.0501 -2.1
      vertex -4.75302 17.4363 -2.8
      vertex -6.44504 17.0501 -2.8
    endloop
  endfacet
  facet normal 0.62349 0.781831 -0
    outer loop
      vertex -6.44504 17.0501 -2.8
      vertex -7.80194 18.1322 -2.1
      vertex -6.44504 17.0501 -2.1
    endloop
  endfacet
  facet normal 0.62349 0.781831 0
    outer loop
      vertex -7.80194 18.1322 -2.1
      vertex -6.44504 17.0501 -2.8
      vertex -7.80194 18.1322 -2.8
    endloop
  endfacet
  facet normal -0.900969 -0.433884 0
    outer loop
      vertex 8 19 -2.8
      vertex 7.24698 20.5637 -2.1
      vertex 7.24698 20.5637 -2.8
    endloop
  endfacet
  facet normal -0.900969 -0.433884 0
    outer loop
      vertex 7.24698 20.5637 -2.1
      vertex 8 19 -2.8
      vertex 8 19 -2.1
    endloop
  endfacet
  facet normal 1 -0 0
    outer loop
      vertex 4.19806 18.1322 -2.1
      vertex 4.19806 19.8678 -2.8
      vertex 4.19806 19.8678 -2.1
    endloop
  endfacet
  facet normal 1 0 0
    outer loop
      vertex 4.19806 19.8678 -2.8
      vertex 4.19806 18.1322 -2.1
      vertex 4.19806 18.1322 -2.8
    endloop
  endfacet
  facet normal -0.222521 -0.974928 0
    outer loop
      vertex 5.55496 20.9499 -2.8
      vertex 7.24698 20.5637 -2.1
      vertex 5.55496 20.9499 -2.1
    endloop
  endfacet
  facet normal -0.222521 -0.974928 -0
    outer loop
      vertex 7.24698 20.5637 -2.1
      vertex 5.55496 20.9499 -2.8
      vertex 7.24698 20.5637 -2.8
    endloop
  endfacet
  facet normal 0.62349 -0.781831 0
    outer loop
      vertex 4.19806 19.8678 -2.8
      vertex 5.55496 20.9499 -2.1
      vertex 4.19806 19.8678 -2.1
    endloop
  endfacet
  facet normal 0.62349 -0.781831 0
    outer loop
      vertex 5.55496 20.9499 -2.1
      vertex 4.19806 19.8678 -2.8
      vertex 5.55496 20.9499 -2.8
    endloop
  endfacet
  facet normal -0.900969 0.433884 0
    outer loop
      vertex 7.24698 17.4363 -2.8
      vertex 8 19 -2.1
      vertex 8 19 -2.8
    endloop
  endfacet
  facet normal -0.900969 0.433884 0
    outer loop
      vertex 8 19 -2.1
      vertex 7.24698 17.4363 -2.8
      vertex 7.24698 17.4363 -2.1
    endloop
  endfacet
  facet normal -0.222521 0.974928 0
    outer loop
      vertex 7.24698 17.4363 -2.8
      vertex 5.55496 17.0501 -2.1
      vertex 7.24698 17.4363 -2.1
    endloop
  endfacet
  facet normal -0.222521 0.974928 0
    outer loop
      vertex 5.55496 17.0501 -2.1
      vertex 7.24698 17.4363 -2.8
      vertex 5.55496 17.0501 -2.8
    endloop
  endfacet
  facet normal 0.62349 0.781831 -0
    outer loop
      vertex 5.55496 17.0501 -2.8
      vertex 4.19806 18.1322 -2.1
      vertex 5.55496 17.0501 -2.1
    endloop
  endfacet
  facet normal 0.62349 0.781831 0
    outer loop
      vertex 4.19806 18.1322 -2.1
      vertex 5.55496 17.0501 -2.8
      vertex 4.19806 18.1322 -2.8
    endloop
  endfacet
  facet normal -0.900969 -0.433884 0
    outer loop
      vertex -4 31 -2.8
      vertex -4.75302 32.5637 -2.1
      vertex -4.75302 32.5637 -2.8
    endloop
  endfacet
  facet normal -0.900969 -0.433884 0
    outer loop
      vertex -4.75302 32.5637 -2.1
      vertex -4 31 -2.8
      vertex -4 31 -2.1
    endloop
  endfacet
  facet normal 1 -0 0
    outer loop
      vertex -7.80194 30.1322 -2.1
      vertex -7.80194 31.8678 -2.8
      vertex -7.80194 31.8678 -2.1
    endloop
  endfacet
  facet normal 1 0 0
    outer loop
      vertex -7.80194 31.8678 -2.8
      vertex -7.80194 30.1322 -2.1
      vertex -7.80194 30.1322 -2.8
    endloop
  endfacet
  facet normal -0.222521 -0.974928 0
    outer loop
      vertex -6.44504 32.9499 -2.8
      vertex -4.75302 32.5637 -2.1
      vertex -6.44504 32.9499 -2.1
    endloop
  endfacet
  facet normal -0.222521 -0.974928 -0
    outer loop
      vertex -4.75302 32.5637 -2.1
      vertex -6.44504 32.9499 -2.8
      vertex -4.75302 32.5637 -2.8
    endloop
  endfacet
  facet normal 0.62349 0.781831 -0
    outer loop
      vertex -6.44504 29.0501 -2.8
      vertex -7.80194 30.1322 -2.1
      vertex -6.44504 29.0501 -2.1
    endloop
  endfacet
  facet normal 0.62349 0.781831 0
    outer loop
      vertex -7.80194 30.1322 -2.1
      vertex -6.44504 29.0501 -2.8
      vertex -7.80194 30.1322 -2.8
    endloop
  endfacet
  facet normal 0.62349 -0.781831 0
    outer loop
      vertex -7.80194 31.8678 -2.8
      vertex -6.44504 32.9499 -2.1
      vertex -7.80194 31.8678 -2.1
    endloop
  endfacet
  facet normal 0.62349 -0.781831 0
    outer loop
      vertex -6.44504 32.9499 -2.1
      vertex -7.80194 31.8678 -2.8
      vertex -6.44504 32.9499 -2.8
    endloop
  endfacet
  facet normal -0.900969 0.433884 0
    outer loop
      vertex -4.75302 29.4363 -2.8
      vertex -4 31 -2.1
      vertex -4 31 -2.8
    endloop
  endfacet
  facet normal -0.900969 0.433884 0
    outer loop
      vertex -4 31 -2.1
      vertex -4.75302 29.4363 -2.8
      vertex -4.75302 29.4363 -2.1
    endloop
  endfacet
  facet normal -0.222521 0.974928 0
    outer loop
      vertex -4.75302 29.4363 -2.8
      vertex -6.44504 29.0501 -2.1
      vertex -4.75302 29.4363 -2.1
    endloop
  endfacet
  facet normal -0.222521 0.974928 0
    outer loop
      vertex -6.44504 29.0501 -2.1
      vertex -4.75302 29.4363 -2.8
      vertex -6.44504 29.0501 -2.8
    endloop
  endfacet
  facet normal 1 -0 0
    outer loop
      vertex -27.1 15.025 -0.8
      vertex -27.1 34.975 -2.1
      vertex -27.1 34.975 -0.8
    endloop
  endfacet
  facet normal 1 0 0
    outer loop
      vertex -27.1 34.975 -2.1
      vertex -27.1 15.025 -0.8
      vertex -27.1 15.025 -2.1
    endloop
  endfacet
  facet normal -1 0 0
    outer loop
      vertex 27.1 15.025 -2.1
      vertex 27.1 34.975 -0.8
      vertex 27.1 34.975 -2.1
    endloop
  endfacet
  facet normal -1 -0 0
    outer loop
      vertex 27.1 34.975 -0.8
      vertex 27.1 15.025 -2.1
      vertex 27.1 15.025 -0.8
    endloop
  endfacet
  facet normal 0 -1 0
    outer loop
      vertex -27.1 34.975 -0.8
      vertex -6 34.975 -1.8
      vertex -6 34.975 -0.8
    endloop
  endfacet
  facet normal 0 -1 -0
    outer loop
      vertex -6 34.975 -1.8
      vertex -27.1 34.975 -2.1
      vertex 0 34.975 -1.8
    endloop
  endfacet
  facet normal 0 -1 0
    outer loop
      vertex -27.1 34.975 -2.1
      vertex -6 34.975 -1.8
      vertex -27.1 34.975 -0.8
    endloop
  endfacet
  facet normal 0 -1 0
    outer loop
      vertex 0 34.975 -1.8
      vertex 27.1 34.975 -0.8
      vertex 0 34.975 -0.8
    endloop
  endfacet
  facet normal 0 -1 0
    outer loop
      vertex 0 34.975 -1.8
      vertex 27.1 34.975 -2.1
      vertex 27.1 34.975 -0.8
    endloop
  endfacet
  facet normal 0 -1 0
    outer loop
      vertex 27.1 34.975 -2.1
      vertex 0 34.975 -1.8
      vertex -27.1 34.975 -2.1
    endloop
  endfacet
  facet normal -0 0 1
    outer loop
      vertex -4.75302 20.5637 -2.1
      vertex -1.80194 19.8678 -2.1
      vertex -4.75302 23.4363 -2.1
    endloop
  endfacet
  facet normal 0 0 1
    outer loop
      vertex -1.80194 19.8678 -2.1
      vertex -4.75302 20.5637 -2.1
      vertex -4 19 -2.1
    endloop
  endfacet
  facet normal -0 0 1
    outer loop
      vertex -6.44504 23.0501 -2.1
      vertex -4.75302 20.5637 -2.1
      vertex -4.75302 23.4363 -2.1
    endloop
  endfacet
  facet normal 0 0 1
    outer loop
      vertex -6.44504 23.0501 -2.1
      vertex -6.44504 20.9499 -2.1
      vertex -4.75302 20.5637 -2.1
    endloop
  endfacet
  facet normal 0 0 1
    outer loop
      vertex -7.80194 24.1322 -2.1
      vertex -6.44504 20.9499 -2.1
      vertex -6.44504 23.0501 -2.1
    endloop
  endfacet
  facet normal 0 0 1
    outer loop
      vertex -6.44504 20.9499 -2.1
      vertex -7.80194 24.1322 -2.1
      vertex -7.80194 19.8678 -2.1
    endloop
  endfacet
  facet normal -0 0 1
    outer loop
      vertex -4.75302 26.5637 -2.1
      vertex -1.80194 25.8678 -2.1
      vertex -4.75302 29.4363 -2.1
    endloop
  endfacet
  facet normal 0 0 1
    outer loop
      vertex -1.80194 25.8678 -2.1
      vertex -4.75302 26.5637 -2.1
      vertex -4 25 -2.1
    endloop
  endfacet
  facet normal -0 0 1
    outer loop
      vertex -6.44504 29.0501 -2.1
      vertex -4.75302 26.5637 -2.1
      vertex -4.75302 29.4363 -2.1
    endloop
  endfacet
  facet normal 0 0 1
    outer loop
      vertex -6.44504 29.0501 -2.1
      vertex -6.44504 26.9499 -2.1
      vertex -4.75302 26.5637 -2.1
    endloop
  endfacet
  facet normal 0 0 1
    outer loop
      vertex -7.80194 30.1322 -2.1
      vertex -6.44504 26.9499 -2.1
      vertex -6.44504 29.0501 -2.1
    endloop
  endfacet
  facet normal 0 0 1
    outer loop
      vertex -6.44504 26.9499 -2.1
      vertex -7.80194 30.1322 -2.1
      vertex -7.80194 25.8678 -2.1
    endloop
  endfacet
  facet normal -0 0 1
    outer loop
      vertex 1.24698 20.5637 -2.1
      vertex 4.19806 19.8678 -2.1
      vertex 1.24698 23.4363 -2.1
    endloop
  endfacet
  facet normal 0 0 1
    outer loop
      vertex 4.19806 19.8678 -2.1
      vertex 1.24698 20.5637 -2.1
      vertex 2 19 -2.1
    endloop
  endfacet
  facet normal -0 0 1
    outer loop
      vertex -0.445042 23.0501 -2.1
      vertex 1.24698 20.5637 -2.1
      vertex 1.24698 23.4363 -2.1
    endloop
  endfacet
  facet normal 0 0 1
    outer loop
      vertex -0.445042 23.0501 -2.1
      vertex -0.445042 20.9499 -2.1
      vertex 1.24698 20.5637 -2.1
    endloop
  endfacet
  facet normal 0 0 1
    outer loop
      vertex -1.80194 24.1322 -2.1
      vertex -0.445042 20.9499 -2.1
      vertex -0.445042 23.0501 -2.1
    endloop
  endfacet
  facet normal 0 0 1
    outer loop
      vertex -0.445042 20.9499 -2.1
      vertex -1.80194 24.1322 -2.1
      vertex -1.80194 19.8678 -2.1
    endloop
  endfacet
  facet normal -0 0 1
    outer loop
      vertex 1.24698 26.5637 -2.1
      vertex 4.19806 25.8678 -2.1
      vertex 1.24698 29.4363 -2.1
    endloop
  endfacet
  facet normal 0 0 1
    outer loop
      vertex 4.19806 25.8678 -2.1
      vertex 1.24698 26.5637 -2.1
      vertex 2 25 -2.1
    endloop
  endfacet
  facet normal -0 0 1
    outer loop
      vertex -0.445042 29.0501 -2.1
      vertex 1.24698 26.5637 -2.1
      vertex 1.24698 29.4363 -2.1
    endloop
  endfacet
  facet normal 0 0 1
    outer loop
      vertex -0.445042 29.0501 -2.1
      vertex -0.445042 26.9499 -2.1
      vertex 1.24698 26.5637 -2.1
    endloop
  endfacet
  facet normal 0 0 1
    outer loop
      vertex -1.80194 30.1322 -2.1
      vertex -0.445042 26.9499 -2.1
      vertex -0.445042 29.0501 -2.1
    endloop
  endfacet
  facet normal 0 0 1
    outer loop
      vertex -0.445042 26.9499 -2.1
      vertex -1.80194 30.1322 -2.1
      vertex -1.80194 25.8678 -2.1
    endloop
  endfacet
  facet normal -0 0 1
    outer loop
      vertex 7.24698 23.4363 -2.1
      vertex 8 19 -2.1
      vertex 8 25 -2.1
    endloop
  endfacet
  facet normal 0 0 1
    outer loop
      vertex 7.24698 23.4363 -2.1
      vertex 7.24698 20.5637 -2.1
      vertex 8 19 -2.1
    endloop
  endfacet
  facet normal -0 0 1
    outer loop
      vertex 5.55496 23.0501 -2.1
      vertex 7.24698 20.5637 -2.1
      vertex 7.24698 23.4363 -2.1
    endloop
  endfacet
  facet normal 0 0 1
    outer loop
      vertex 5.55496 23.0501 -2.1
      vertex 5.55496 20.9499 -2.1
      vertex 7.24698 20.5637 -2.1
    endloop
  endfacet
  facet normal 0 0 1
    outer loop
      vertex 4.19806 24.1322 -2.1
      vertex 5.55496 20.9499 -2.1
      vertex 5.55496 23.0501 -2.1
    endloop
  endfacet
  facet normal 0 0 1
    outer loop
      vertex 5.55496 20.9499 -2.1
      vertex 4.19806 24.1322 -2.1
      vertex 4.19806 19.8678 -2.1
    endloop
  endfacet
  facet normal -0 0 1
    outer loop
      vertex 7.24698 29.4363 -2.1
      vertex 8 25 -2.1
      vertex 8 31 -2.1
    endloop
  endfacet
  facet normal 0 0 1
    outer loop
      vertex 7.24698 29.4363 -2.1
      vertex 7.24698 26.5637 -2.1
      vertex 8 25 -2.1
    endloop
  endfacet
  facet normal -0 0 1
    outer loop
      vertex 5.55496 29.0501 -2.1
      vertex 7.24698 26.5637 -2.1
      vertex 7.24698 29.4363 -2.1
    endloop
  endfacet
  facet normal 0 0 1
    outer loop
      vertex 5.55496 29.0501 -2.1
      vertex 5.55496 26.9499 -2.1
      vertex 7.24698 26.5637 -2.1
    endloop
  endfacet
  facet normal 0 0 1
    outer loop
      vertex 4.19806 30.1322 -2.1
      vertex 5.55496 26.9499 -2.1
      vertex 5.55496 29.0501 -2.1
    endloop
  endfacet
  facet normal 0 0 1
    outer loop
      vertex 5.55496 26.9499 -2.1
      vertex 4.19806 30.1322 -2.1
      vertex 4.19806 25.8678 -2.1
    endloop
  endfacet
  facet normal 0 0 1
    outer loop
      vertex 8 25 -2.1
      vertex 27.1 34.975 -2.1
      vertex 8 31 -2.1
    endloop
  endfacet
  facet normal 0 0 1
    outer loop
      vertex 27.1 34.975 -2.1
      vertex 7.24698 32.5637 -2.1
      vertex 8 31 -2.1
    endloop
  endfacet
  facet normal 0 0 1
    outer loop
      vertex 27.1 34.975 -2.1
      vertex 5.55496 32.9499 -2.1
      vertex 7.24698 32.5637 -2.1
    endloop
  endfacet
  facet normal -0 0 1
    outer loop
      vertex 2 31 -2.1
      vertex 4.19806 30.1322 -2.1
      vertex 4.19806 31.8678 -2.1
    endloop
  endfacet
  facet normal 0 0 1
    outer loop
      vertex 1.24698 29.4363 -2.1
      vertex 4.19806 30.1322 -2.1
      vertex 2 31 -2.1
    endloop
  endfacet
  facet normal 0 0 1
    outer loop
      vertex 4.19806 25.8678 -2.1
      vertex 2 25 -2.1
      vertex 4.19806 24.1322 -2.1
    endloop
  endfacet
  facet normal 0 0 1
    outer loop
      vertex 1.24698 23.4363 -2.1
      vertex 4.19806 24.1322 -2.1
      vertex 2 25 -2.1
    endloop
  endfacet
  facet normal 0 0 1
    outer loop
      vertex 4.19806 30.1322 -2.1
      vertex 1.24698 29.4363 -2.1
      vertex 4.19806 25.8678 -2.1
    endloop
  endfacet
  facet normal -0 0 1
    outer loop
      vertex 1.24698 32.5637 -2.1
      vertex 4.19806 31.8678 -2.1
      vertex 5.55496 32.9499 -2.1
    endloop
  endfacet
  facet normal 0 0 1
    outer loop
      vertex 4.19806 31.8678 -2.1
      vertex 1.24698 32.5637 -2.1
      vertex 2 31 -2.1
    endloop
  endfacet
  facet normal 0 0 1
    outer loop
      vertex -0.445042 32.9499 -2.1
      vertex 5.55496 32.9499 -2.1
      vertex 27.1 34.975 -2.1
    endloop
  endfacet
  facet normal 0 0 1
    outer loop
      vertex 5.55496 32.9499 -2.1
      vertex -0.445042 32.9499 -2.1
      vertex 1.24698 32.5637 -2.1
    endloop
  endfacet
  facet normal -0 0 1
    outer loop
      vertex -4 31 -2.1
      vertex -1.80194 30.1322 -2.1
      vertex -1.80194 31.8678 -2.1
    endloop
  endfacet
  facet normal 0 0 1
    outer loop
      vertex -4.75302 29.4363 -2.1
      vertex -1.80194 30.1322 -2.1
      vertex -4 31 -2.1
    endloop
  endfacet
  facet normal 0 0 1
    outer loop
      vertex -1.80194 25.8678 -2.1
      vertex -4 25 -2.1
      vertex -1.80194 24.1322 -2.1
    endloop
  endfacet
  facet normal 0 0 1
    outer loop
      vertex -4.75302 23.4363 -2.1
      vertex -1.80194 24.1322 -2.1
      vertex -4 25 -2.1
    endloop
  endfacet
  facet normal 0 0 1
    outer loop
      vertex -1.80194 30.1322 -2.1
      vertex -4.75302 29.4363 -2.1
      vertex -1.80194 25.8678 -2.1
    endloop
  endfacet
  facet normal -0 0 1
    outer loop
      vertex -4.75302 32.5637 -2.1
      vertex -1.80194 31.8678 -2.1
      vertex -0.445042 32.9499 -2.1
    endloop
  endfacet
  facet normal 0 0 1
    outer loop
      vertex -1.80194 31.8678 -2.1
      vertex -4.75302 32.5637 -2.1
      vertex -4 31 -2.1
    endloop
  endfacet
  facet normal 0 0 1
    outer loop
      vertex -0.445042 32.9499 -2.1
      vertex -6.44504 32.9499 -2.1
      vertex -4.75302 32.5637 -2.1
    endloop
  endfacet
  facet normal -0 0 1
    outer loop
      vertex -27.1 34.975 -2.1
      vertex -0.445042 32.9499 -2.1
      vertex 27.1 34.975 -2.1
    endloop
  endfacet
  facet normal 0 0 1
    outer loop
      vertex -27.1 34.975 -2.1
      vertex -7.80194 30.1322 -2.1
      vertex -7.80194 31.8678 -2.1
    endloop
  endfacet
  facet normal 0 0 1
    outer loop
      vertex -7.80194 30.1322 -2.1
      vertex -27.1 34.975 -2.1
      vertex -7.80194 25.8678 -2.1
    endloop
  endfacet
  facet normal 0 0 1
    outer loop
      vertex -7.80194 25.8678 -2.1
      vertex -27.1 34.975 -2.1
      vertex -7.80194 24.1322 -2.1
    endloop
  endfacet
  facet normal 0 0 1
    outer loop
      vertex -27.1 15.025 -2.1
      vertex -7.80194 24.1322 -2.1
      vertex -27.1 34.975 -2.1
    endloop
  endfacet
  facet normal 0 0 1
    outer loop
      vertex -7.80194 24.1322 -2.1
      vertex -27.1 15.025 -2.1
      vertex -7.80194 19.8678 -2.1
    endloop
  endfacet
  facet normal 0 0 1
    outer loop
      vertex -6.44504 32.9499 -2.1
      vertex -27.1 34.975 -2.1
      vertex -7.80194 31.8678 -2.1
    endloop
  endfacet
  facet normal 0 0 1
    outer loop
      vertex -0.445042 32.9499 -2.1
      vertex -27.1 34.975 -2.1
      vertex -6.44504 32.9499 -2.1
    endloop
  endfacet
  facet normal 0 0 1
    outer loop
      vertex 27.1 34.975 -2.1
      vertex 8 25 -2.1
      vertex 27.1 15.025 -2.1
    endloop
  endfacet
  facet normal -0 0 1
    outer loop
      vertex 8 19 -2.1
      vertex 27.1 15.025 -2.1
      vertex 8 25 -2.1
    endloop
  endfacet
  facet normal -0 0 1
    outer loop
      vertex 7.24698 17.4363 -2.1
      vertex 27.1 15.025 -2.1
      vertex 8 19 -2.1
    endloop
  endfacet
  facet normal -0 0 1
    outer loop
      vertex 5.55496 17.0501 -2.1
      vertex 27.1 15.025 -2.1
      vertex 7.24698 17.4363 -2.1
    endloop
  endfacet
  facet normal 0 0 1
    outer loop
      vertex 4.19806 24.1322 -2.1
      vertex 1.24698 23.4363 -2.1
      vertex 4.19806 19.8678 -2.1
    endloop
  endfacet
  facet normal 0 0 1
    outer loop
      vertex 4.19806 19.8678 -2.1
      vertex 2 19 -2.1
      vertex 4.19806 18.1322 -2.1
    endloop
  endfacet
  facet normal 0 0 1
    outer loop
      vertex 1.24698 17.4363 -2.1
      vertex 4.19806 18.1322 -2.1
      vertex 2 19 -2.1
    endloop
  endfacet
  facet normal 0 0 1
    outer loop
      vertex 4.19806 18.1322 -2.1
      vertex 1.24698 17.4363 -2.1
      vertex 5.55496 17.0501 -2.1
    endloop
  endfacet
  facet normal 0 0 1
    outer loop
      vertex -0.445042 17.0501 -2.1
      vertex 5.55496 17.0501 -2.1
      vertex 1.24698 17.4363 -2.1
    endloop
  endfacet
  facet normal 0 0 1
    outer loop
      vertex 5.55496 17.0501 -2.1
      vertex -0.445042 17.0501 -2.1
      vertex 27.1 15.025 -2.1
    endloop
  endfacet
  facet normal 0 0 1
    outer loop
      vertex -1.80194 24.1322 -2.1
      vertex -4.75302 23.4363 -2.1
      vertex -1.80194 19.8678 -2.1
    endloop
  endfacet
  facet normal 0 0 1
    outer loop
      vertex -1.80194 19.8678 -2.1
      vertex -4 19 -2.1
      vertex -1.80194 18.1322 -2.1
    endloop
  endfacet
  facet normal 0 0 1
    outer loop
      vertex -4.75302 17.4363 -2.1
      vertex -1.80194 18.1322 -2.1
      vertex -4 19 -2.1
    endloop
  endfacet
  facet normal 0 0 1
    outer loop
      vertex -1.80194 18.1322 -2.1
      vertex -4.75302 17.4363 -2.1
      vertex -0.445042 17.0501 -2.1
    endloop
  endfacet
  facet normal 0 0 1
    outer loop
      vertex -6.44504 17.0501 -2.1
      vertex -0.445042 17.0501 -2.1
      vertex -4.75302 17.4363 -2.1
    endloop
  endfacet
  facet normal 0 0 1
    outer loop
      vertex -27.1 15.025 -2.1
      vertex -0.445042 17.0501 -2.1
      vertex -6.44504 17.0501 -2.1
    endloop
  endfacet
  facet normal 0 0 1
    outer loop
      vertex -0.445042 17.0501 -2.1
      vertex -27.1 15.025 -2.1
      vertex 27.1 15.025 -2.1
    endloop
  endfacet
  facet normal 0 0 1
    outer loop
      vertex -7.80194 18.1322 -2.1
      vertex -27.1 15.025 -2.1
      vertex -6.44504 17.0501 -2.1
    endloop
  endfacet
  facet normal 0 0 1
    outer loop
      vertex -7.80194 19.8678 -2.1
      vertex -27.1 15.025 -2.1
      vertex -7.80194 18.1322 -2.1
    endloop
  endfacet
  facet normal 0 1 -0
    outer loop
      vertex 6 15.025 -0.8
      vertex 0 15.025 1.2
      vertex 6 15.025 1.2
    endloop
  endfacet
  facet normal 0 1 0
    outer loop
      vertex 6 15.025 -0.8
      vertex 0 15.025 -0.8
      vertex 0 15.025 1.2
    endloop
  endfacet
  facet normal 0 1 -0
    outer loop
      vertex 6 15.025 -1.8
      vertex 0 15.025 -0.8
      vertex 6 15.025 -0.8
    endloop
  endfacet
  facet normal 0 1 0
    outer loop
      vertex 0 15.025 -0.8
      vertex 6 15.025 -1.8
      vertex 0 15.025 -1.8
    endloop
  endfacet
  facet normal 0 1 0
    outer loop
      vertex 27.1 15.025 -0.8
      vertex 6 15.025 -1.8
      vertex 6 15.025 -0.8
    endloop
  endfacet
  facet normal 0 1 0
    outer loop
      vertex 6 15.025 -1.8
      vertex 27.1 15.025 -2.1
      vertex 0 15.025 -1.8
    endloop
  endfacet
  facet normal 0 1 -0
    outer loop
      vertex 27.1 15.025 -2.1
      vertex 6 15.025 -1.8
      vertex 27.1 15.025 -0.8
    endloop
  endfacet
  facet normal 0 1 -0
    outer loop
      vertex 0 15.025 -1.8
      vertex -27.1 15.025 -0.8
      vertex 0 15.025 -0.8
    endloop
  endfacet
  facet normal 0 1 0
    outer loop
      vertex 0 15.025 -1.8
      vertex -27.1 15.025 -2.1
      vertex -27.1 15.025 -0.8
    endloop
  endfacet
  facet normal 0 1 0
    outer loop
      vertex -27.1 15.025 -2.1
      vertex 0 15.025 -1.8
      vertex 27.1 15.025 -2.1
    endloop
  endfacet
  facet normal -1 0 0
    outer loop
      vertex 0 13.13 -0.8
      vertex 0 15.025 1.2
      vertex 0 15.025 -0.8
    endloop
  endfacet
  facet normal -1 -0 0
    outer loop
      vertex 0 15.025 1.2
      vertex 0 13.13 -0.8
      vertex 0 13.13 1.2
    endloop
  endfacet
  facet normal -0 0 1
    outer loop
      vertex 0 15.025 1.2
      vertex 6 13.13 1.2
      vertex 6 15.025 1.2
    endloop
  endfacet
  facet normal 0 0 1
    outer loop
      vertex 6 13.13 1.2
      vertex 0 15.025 1.2
      vertex 0 13.13 1.2
    endloop
  endfacet
  facet normal 1 -0 0
    outer loop
      vertex 6 13.13 1.2
      vertex 6 15.025 -0.8
      vertex 6 15.025 1.2
    endloop
  endfacet
  facet normal 1 0 0
    outer loop
      vertex 6 15.025 -0.8
      vertex 6 13.13 1.2
      vertex 6 13.13 -0.8
    endloop
  endfacet
  facet normal -1 0 0
    outer loop
      vertex -6 34.975 -1.8
      vertex -6 34.97 -1.8
      vertex -6 34.975 -0.8
    endloop
  endfacet
  facet normal -1 0 0
    outer loop
      vertex -6 34.975 -0.8
      vertex -6 36.865 1.2
      vertex -6 36.865 -0.8
    endloop
  endfacet
  facet normal -1 0 0
    outer loop
      vertex -6 34.975 -0.8
      vertex -6 34.97 1.2
      vertex -6 36.865 1.2
    endloop
  endfacet
  facet normal -1 0 0
    outer loop
      vertex -6 34.97 1.2
      vertex -6 34.975 -0.8
      vertex -6 34.97 -1.8
    endloop
  endfacet
  facet normal -0 0 1
    outer loop
      vertex -6 36.865 1.2
      vertex 0 34.97 1.2
      vertex 0 36.865 1.2
    endloop
  endfacet
  facet normal 0 0 1
    outer loop
      vertex 0 34.97 1.2
      vertex -6 36.865 1.2
      vertex -6 34.97 1.2
    endloop
  endfacet
  facet normal 1 0 0
    outer loop
      vertex 0 36.865 1.2
      vertex 0 34.975 -0.8
      vertex 0 36.865 -0.8
    endloop
  endfacet
  facet normal 1 -0 0
    outer loop
      vertex 0 34.97 1.2
      vertex 0 34.975 -0.8
      vertex 0 36.865 1.2
    endloop
  endfacet
  facet normal 1 0 0
    outer loop
      vertex 0 34.97 -1.8
      vertex 0 34.975 -0.8
      vertex 0 34.97 1.2
    endloop
  endfacet
  facet normal 1 0 0
    outer loop
      vertex 0 34.975 -0.8
      vertex 0 34.97 -1.8
      vertex 0 34.975 -1.8
    endloop
  endfacet
  facet normal 0 0 -1
    outer loop
      vertex -6 34.97 -1.8
      vertex 0 34.975 -1.8
      vertex 0 34.97 -1.8
    endloop
  endfacet
  facet normal -0 0 -1
    outer loop
      vertex 0 34.975 -1.8
      vertex -6 34.97 -1.8
      vertex -6 34.975 -1.8
    endloop
  endfacet
  facet normal 0 -1 0
    outer loop
      vertex -6 34.97 -1.8
      vertex 0 34.97 1.2
      vertex -6 34.97 1.2
    endloop
  endfacet
  facet normal 0 -1 -0
    outer loop
      vertex 0 34.97 1.2
      vertex -6 34.97 -1.8
      vertex 0 34.97 -1.8
    endloop
  endfacet
  facet normal 0 1 -0
    outer loop
      vertex 0 36.865 -0.8
      vertex -6 36.865 1.2
      vertex 0 36.865 1.2
    endloop
  endfacet
  facet normal 0 1 0
    outer loop
      vertex -6 36.865 1.2
      vertex 0 36.865 -0.8
      vertex -6 36.865 -0.8
    endloop
  endfacet
endsolid OpenSCAD_Model
